<svg width="227" height="34" viewBox="0 0 227 34" xmlns="http://www.w3.org/2000/svg"><title>divider fill</title><path d="M201.351 6.929c-7.935-4.263-14.985-6.55-20.139-6.424-7.12.173-11.05 5.242-8.961 12.232l3.317 11.105c.158.527.205.894.189 1.09a.955.955 0 0 1 .194-.384c.115-.147.213-.216.21-.215-.22.084-.608.151-1.153.165-3.29.08-8.975-1.763-15.657-5.352L136.61 6.929c-7.936-4.263-14.986-6.55-20.139-6.424-7.12.173-11.05 5.242-8.962 12.232l3.318 11.105c.157.527.205.894.188 1.09a.955.955 0 0 1 .195-.384c.114-.147.212-.216.21-.215-.22.084-.609.151-1.153.165-3.29.08-8.976-1.763-15.658-5.352L71.87 6.929C63.935 2.666 56.885.379 51.732.505c-7.12.173-11.05 5.242-8.962 12.232l3.318 11.105c.157.527.204.894.188 1.09a.955.955 0 0 1 .194-.384c.115-.147.213-.216.21-.215-.22.084-.608.151-1.153.165-3.29.08-8.975-1.763-15.657-5.352L7.13 6.929a4.5 4.5 0 1 0-4.26 7.928l22.74 12.217c7.933 4.262 14.983 6.547 20.137 6.421 7.12-.174 11.052-5.24 8.964-12.23l-3.318-11.104c-.158-.528-.205-.897-.189-1.093a.955.955 0 0 1-.194.382c-.114.148-.213.217-.21.217.218-.084.606-.151 1.15-.165 3.29-.08 8.976 1.764 15.66 5.355l22.741 12.217c7.933 4.262 14.983 6.547 20.137 6.421 7.119-.174 11.051-5.24 8.963-12.23l-3.317-11.104c-.158-.528-.206-.897-.19-1.093a.955.955 0 0 1-.193.382c-.115.148-.213.217-.211.217.219-.084.607-.151 1.151-.165 3.29-.08 8.976 1.764 15.66 5.355l22.74 12.217c7.933 4.262 14.983 6.547 20.137 6.421 7.12-.174 11.052-5.24 8.964-12.23l-3.318-11.104c-.158-.528-.205-.897-.189-1.093a.955.955 0 0 1-.194.382c-.114.148-.213.217-.211.217.22-.084.607-.151 1.152-.165 3.29-.08 8.975 1.764 15.66 5.355l22.74 12.217a4.5 4.5 0 0 0 4.26-7.928L201.35 6.929z" fill="#CFFDFF" fill-rule="evenodd"/></svg>