<svg width="22" height="21" viewBox="0 0 22 21" xmlns="http://www.w3.org/2000/svg" xmlns:xlink="http://www.w3.org/1999/xlink"><title>path46</title><defs><path d="M1156.066 1127.768c2.037.001 3.534.832 4.933 2.539 1.401-1.707 2.897-2.541 4.93-2.542a6.071 6.071 0 0 1 6.07 6.07c.004.475-.057.936-.16 1.378-.843 5.235-6.664 10.762-10.835 12.28-4.17-1.518-9.996-7.04-10.842-12.274a6.125 6.125 0 0 1-.162-1.38 6.072 6.072 0 0 1 6.066-6.071z" id="a"/><mask id="b" x="0" y="0" width="22" height="19.727" fill="#fff"><use xlink:href="#a"/></mask></defs><use mask="url(#b)" xlink:href="#a" transform="translate(-1150 -1127)" stroke="#FF92D1" stroke-width="4" fill="none" fill-rule="evenodd"/></svg>