<svg width="122" height="87" viewBox="0 0 122 87" xmlns="http://www.w3.org/2000/svg" xmlns:xlink="http://www.w3.org/1999/xlink"><title>Group + Group + sparklez</title><defs><path d="M50.039 26.006c.023-.06.08-.108.091-.168.047-.274.099-.549.12-.826.032-.442.249-.878.06-1.33-.005-.01-.003-.022-.002-.033.02-.27.032-.54.065-.806.05-.41.027-.82-.003-1.227-.022-.287-.156-.564-.1-.863.008-.038-.014-.083-.028-.124-.067-.202-.15-.4-.202-.606-.108-.436-.335-.817-.528-1.215-.062-.125-.116-.255-.176-.382-.163-.34-.3-.698-.498-1.017-.205-.328-.495-.596-.669-.954-.08-.165-.277-.27-.285-.49-.001-.04-.068-.077-.103-.117-.248-.283-.554-.512-.755-.84a.638.638 0 0 0-.326-.254c-.242-.077-.376-.243-.484-.45-.06-.114-.144-.219-.19-.339a.973.973 0 0 0-.417-.482 1.782 1.782 0 0 1-.589-.57c-.221-.338-.508-.64-.802-.921-.367-.35-.767-.663-1.158-.985-.125-.102-.268-.181-.403-.272-.302-.205-.651-.344-.9-.621a1.253 1.253 0 0 0-.513-.333 5.751 5.751 0 0 0-.868-.265 2.42 2.42 0 0 1-.6-.235 1.29 1.29 0 0 0-.494-.142c-.43-.038-.864-.062-1.28-.206-.108-.038-.232-.036-.35-.04-.085-.004-.172.018-.259.017-.553-.01-1.106-.02-1.66-.04-.58-.021-1.157-.01-1.738.027-.682.043-1.323.217-1.973.388-.313.083-.61.241-.944.228a.57.57 0 0 0-.444.15.552.552 0 0 0-.43-.092c-.117.018-.256.057-.385-.065-.087-.081-.25-.052-.362.042-.079.067-.159.114-.265.051-.024-.014-.067-.012-.093-.001-.214.085-.427.175-.647.266l-.061-.048c-.14.063-.258.141-.388.168-.232.05-.452.105-.64.265a.485.485 0 0 1-.3.114c-.307-.011-.541.176-.807.272-.137.05-.252.16-.378.24-.064.04-.133.072-.199.108-.12.068-.243.134-.363.204-.055.033-.102.103-.158.11-.26.027-.32.207-.353.418-.002.016-.031.027-.02.018l-.505.02c-.074-.22-.156-.432-.215-.65-.085-.31-.151-.626-.227-.94-.05-.21-.1-.42-.159-.628-.187-.665-.5-1.286-.698-1.948-.009-.03-.02-.066-.042-.086-.225-.199-.303-.464-.36-.745-.017-.082-.072-.156-.113-.232-.122-.23-.25-.455-.367-.687-.108-.212-.195-.434-.31-.642a12.602 12.602 0 0 0-.454-.747 23.528 23.528 0 0 1-.445-.711c-.148-.248-.326-.505-.59-.673a2.831 2.831 0 0 1-.407-.32c-.324-.303-.639-.616-1.06-.786a.262.262 0 0 1-.108-.073c-.102-.128-.25-.166-.396-.21-.334-.098-.668-.194-1.001-.295-.28-.086-.557-.185-.839-.266-.5-.143-1.004-.278-1.507-.414a.856.856 0 0 0-.224-.033c-.217.003-.434.023-.65.019a53.53 53.53 0 0 1-1.56-.047c-.326-.015-.65-.079-.975-.073a2.21 2.21 0 0 1-.64-.068.769.769 0 0 0-.321-.011c-.407.07-.81.16-1.217.228a2.53 2.53 0 0 1-.483.026c-.263-.007-.522-.023-.73.184-.037.036-.095.05-.145.07-.296.135-.603.248-.884.407a3.21 3.21 0 0 1-.916.328.746.746 0 0 0-.286.133c-.311.221-.53.53-.796.794-.408.402-.814.806-1.279 1.148a4.89 4.89 0 0 0-.505.45c-.13.129-.224.3-.367.41-.294.226-.443.56-.645.848-.208.296-.308.663-.467.993a7.631 7.631 0 0 1-.386.713c-.054.088-.163.142-.248.211.105.183.117.192-.022.359-.154.186-.205.406-.237.63-.05.352-.078.708-.117 1.063l-.4.307c.405.138.451.23.388.671-.025.18-.016.366-.025.548-.005.097-.005.196-.028.29-.057.246-.076.5-.156.743-.024.072.011.162.013.244.002.071.016.153-.013.212-.13.273-.12.564-.12.852 0 .378-.004.75-.146 1.112-.09.23-.176.466-.079.724.025.065.01.152-.009.224-.07.273-.016.55-.032.824-.021.373-.033.75.106 1.11.015.038.006.085.008.128.006.194.004.389.02.582.01.115.082.232.067.34-.086.602.012 1.193.087 1.785.017.138.007.292.067.409.098.191.098.392.128.591.045.307.086.616.133.923.008.052.04.1.059.15.018.047.033.096.047.145.026.09.024.203.08.263.107.114.147.25.152.385.015.423.268.771.35 1.172.043.22.136.432.162.653.02.167.055.315.137.46.042.074.064.16.09.242.054.164.1.331.156.495.198.578.466 1.133.589 1.737a.923.923 0 0 0 .157.354c.128.173.205.35.197.568-.003.06.025.13.058.183.22.353.308.757.453 1.14.038.101.088.197.13.297.052.128.11.254.151.386.045.144.065.296.111.44.09.278.187.554.288.827.136.365.283.725.417 1.091.059.162.135.333.13.496a.538.538 0 0 0 .092.319c.13.224.306.448.345.69.058.356.212.657.373.96.105.2.239.384.366.57.086.124.218.228.267.363.092.251.235.476.321.735.159.479.392.937.628 1.386.194.367.357.74.454 1.142.161.667.485 1.269.778 1.88.215.448.466.88.717 1.309.167.287.361.559.549.834.132.195.293.373.405.578.247.454.43.94.743 1.36.118.159.224.313.413.399a.451.451 0 0 1 .19.168c.078.13.184.206.327.247a.343.343 0 0 1 .16.099c.152.18.35.333.368.596.003.03.012.07.034.088.185.164.365.335.563.482.143.105.29.205.337.38.055.205.15.374.308.517.061.056.1.14.139.217.168.338.333.677.514 1.044.114-.007.214.015.282-.023.233-.13.49-.148.74-.213.343-.09.668-.248 1.001-.378.112-.044.218-.09.342-.017.046.028.13.024.182.004.433-.17.864-.343 1.292-.52.39-.163.775-.336 1.165-.496.36-.148.725-.282 1.086-.429.221-.09.43-.227.659-.274.24-.05.453-.14.661-.255.038-.02.08-.035.12-.05.415-.156.855-.24 1.256-.445.393-.202.81-.353 1.207-.549.32-.157.62-.35.974-.433a3.54 3.54 0 0 0 .576-.202c.238-.103.468-.225.702-.34.302-.146.596-.31.908-.432.268-.104.56-.15.771-.374.019-.02.063-.015.093-.027.328-.14.667-.26.983-.424.455-.235.93-.414 1.405-.599.097-.037.184-.1.272-.157.21-.136.418-.276.675-.295.523-.04.947-.31 1.31-.643.267-.247.55-.445.87-.608.328-.166.676-.292.975-.514.18-.134.361-.28.566-.37a1.28 1.28 0 0 0 .45-.308c.163-.18.343-.324.592-.368a.34.34 0 0 0 .17-.09.62.62 0 0 1 .435-.192c.105-.003.197-.051.217-.163.025-.14.123-.19.239-.237.09-.036.17-.094.255-.141.216-.121.431-.244.65-.362.217-.118.453-.209.654-.348.363-.252.702-.536 1.058-.796.146-.108.33-.17.464-.288.21-.184.345-.458.64-.533.314-.078.379-.444.665-.548.01-.004.022-.007.03-.014.023-.022.055-.042.065-.07.083-.241.304-.327.503-.426a.875.875 0 0 0 .344-.285c.231-.326.496-.64.854-.818.342-.172.597-.439.82-.709.302-.365.658-.677.95-1.047.207-.262.472-.479.593-.804.017-.045.073-.076.113-.11.065-.058.138-.106.197-.168.259-.275.503-.565.773-.828.264-.258.534-.506.703-.84.034-.066.087-.147.149-.168.22-.071.308-.26.43-.422a.99.99 0 0 1 .243-.256.647.647 0 0 0 .242-.296 1.45 1.45 0 0 1 .114-.194c.262-.382.538-.753.593-1.239.028-.244.097-.484.16-.723.038-.145.1-.284.153-.425.083-.221.165-.443.252-.663z" id="a"/><mask id="b" x="-3" y="-3" width="56.141" height="55.473"><path fill="#fff" d="M-2.738-2.525h56.141v55.473H-2.738z"/><use xlink:href="#a"/></mask></defs><g fill="none" fill-rule="evenodd"><g fill="#FF92D1"><path d="M36.811 44.93c-.118.123-.201.094-.283.021-.477-.421-.942-.858-1.435-1.26a10.194 10.194 0 0 1-.95-.88c-.05-.052-.121-.087-.187-.121-.14-.073-.201-.182-.191-.383.095.064.168.1.226.153.265.24.53.477.849.65.09.048.167.138.225.226.113.172.275.272.458.347.31.128.53.356.73.615.138.177.305.331.457.497.035.038.063.083.101.136m2.641 2.01c-.141.027-.219-.052-.302-.117-.185-.148-.368-.3-.56-.436-.104-.073-.231-.111-.34-.177-.135-.082-.263-.177-.395-.265-.124-.084-.259-.154-.372-.25a6.72 6.72 0 0 1-.489-.458c-.027-.027-.029-.111-.006-.145.023-.034.1-.061.138-.048a.827.827 0 0 1 .218.128c.153.116.302.239.453.358.034.026.082.04.105.073.085.121.172.228.35.127l.038.329c.19-.04.302.08.428.193.136.12.317.194.444.322.104.104.341.129.29.366m24.602-32.967c.278-.36-.116-.581-.07-.893l.315.235.113-.3c.072.06.129.091.163.138.107.148.204.303.308.454.057.082.041.155.005.241-.022.054 0 .127.002.203l-.322.126c-.137-.11-.227-.296-.514-.204m1.084.952c-.034.013-.07.041-.089.033-.226-.107-.32-.305-.353-.537-.005-.033.025-.1.047-.103a.221.221 0 0 1 .142.031c.032.02.05.069.065.108.06.145.117.292.188.468m-10.565-4.44l.824-.323.036.045c-.027.047-.042.111-.083.14-.21.149-.443.21-.777.138m-8.555 39.363c-.203-.05-.406-.097-.608-.15-.024-.007-.056-.047-.054-.07.003-.039.022-.103.046-.109.07-.015.157-.032.214-.003.15.076.289.176.432.266l-.03.066m.907.472c-.093.005-.187.019-.28.014-.159-.008-.165-.103-.118-.238.164.011.285.095.398.224m1.882.996c.273-.048.409.064.538.19-.17-.015-.325-.075-.538-.19m7.29-41.297c-.117.105-.24.087-.389.088.175-.102.175-.102.39-.088m-3.65 1.082c-.036.02-.07.044-.108.06-.046.018-.097.03-.166.052.095-.12.095-.12.274-.112m-5.052 39.395l.422.24c-.262-.038-.262-.038-.422-.24M64.443 16.83l-.306.1c.052-.168.17-.16.283-.164l.023.064m-14.83 34.762l.306.066c-.164.138-.246.081-.306-.066m7.143-41.815l.21.012v.054l-.225.008.015-.074M33.499 42.163l-.11-.082.058-.058.09.1-.038.04M64.864 16.56c-.027.048-.04.092-.055.093-.035.002-.072-.015-.109-.025.01-.027.016-.071.033-.076.034-.01.073.003.13.009m-3.538 29.568c-.228-.267-.254-.443-.1-.603.139-.142.404-.172.533-.06.175.154.15.33-.096.647.056.06.116.12.173.184.142.152.122.352-.048.462a.75.75 0 0 1-.174.084c-.223.07-.419-.092-.383-.323.02-.127.06-.251.095-.391m.292-2.708c.157.107.177.24.128.384-.076.223-.305.302-.498.176-.144-.095-.174-.206-.092-.36.025-.047.06-.089.092-.133l.076-.105c-.044-.146-.25-.214-.19-.393.022-.067.06-.149.117-.183.242-.146.405-.173.552.008.142.174.092.354-.185.606m7.723-26.512c-.09.066-.173.105-.221.17-.112.15-.25.116-.377.059a.517.517 0 0 1-.315-.45c-.019-.192.084-.302.231-.386.264-.153.487-.075.59.212.047.128.063.266.092.395M57.678 49.841c.14.014.248.016.353.038.057.012.13.043.158.088.136.227-.082.642-.348.676-.185.024-.361-.09-.453-.296-.06-.135-.019-.26.135-.39.05-.042.104-.078.155-.116m2.743-.987c-.016.096-.021.182-.045.263-.07.244-.304.344-.57.247-.2-.071-.28-.283-.193-.502a.35.35 0 0 1 .348-.237c.192 0 .354.07.46.229m-3.903 4.054c.16.06.265.146.317.289.074.21-.036.465-.236.542-.191.074-.414-.034-.506-.245-.069-.155-.022-.32.13-.423.09-.06.189-.105.295-.163m1.412-1.326c.069.212-.003.377-.194.445-.228.082-.481-.031-.554-.248-.062-.182.082-.416.292-.473.178-.05.391.08.456.276m5.486-10.398c.223-.094.654.13.702.366.024.122-.096.287-.237.288a1.599 1.599 0 0 1-.445-.056c-.141-.041-.175-.172-.179-.31-.003-.13.036-.23.16-.288m-.933.142c-.202.086-.47.028-.568-.084-.107-.123-.029-.38.141-.469.164-.085.454-.035.574.103.068.078.108.168.03.262-.068.08-.144.153-.177.188m.844 2.49c-.118.061-.23.029-.334-.076-.103-.104-.184-.21-.139-.368.053-.183.207-.34.318-.32.17.033.392.303.384.47-.008.164-.055.227-.229.294m-3.63 2.242c.16-.063.42.03.48.171.077.185-.03.441-.214.514a.379.379 0 0 1-.464-.192c-.068-.148.046-.432.198-.493m4.333-5.224c-.092-.013-.18-.014-.26-.041-.145-.052-.204-.163-.187-.325.014-.122.035-.245.057-.396.219.078.47-.022.582.235.096.216-.025.366-.192.527m-2.663 6.349c.063.173-.049.413-.221.479-.15.055-.424-.086-.472-.244-.053-.173.031-.367.187-.43.204-.082.438.007.506.195m1.113-2.9c.154-.058.39.058.45.22.053.146-.074.364-.253.433-.144.055-.37-.055-.422-.207-.052-.148.07-.387.225-.446m-2.079 1.572c-.064-.083-.146-.167-.2-.266a.287.287 0 0 1 .11-.392c.127-.07.303-.006.387.14.066.114.054.232-.046.321-.078.072-.166.132-.25.197m2.39-4.172c.078.291.078.291-.158.376-.025-.146.066-.238.158-.376m-3.716 8.41c-.064.004-.108.017-.142.005a.225.225 0 0 1-.116-.08c-.01-.017.025-.092.05-.098a.19.19 0 0 1 .144.023c.032.025.038.085.064.15m.817-6.689l.064-.23.053-.003c.012.047.05.114.032.135-.037.045-.103.064-.158.094l.009.004m-17.862-6.589c.83-.136.99-.187 1.197-.385-.427-.53-.725-1.158-1.259-1.675-.08.72.116 1.372.062 2.06m-12.908-3.898c-.027-.024-.076-.022-.179-.048.039.12.045.19.079.238.229.319.39.67.528 1.034.038.1.081.228.229.237.213-.38.211-.608-.043-.885-.19-.207-.406-.388-.614-.576m3.771-.483c-.099-.25-.234-.39-.464-.429.117.16.188.367.464.429m32.651 8.419l.004-.004.001-.004-.005.008"/><path d="M42.032 36.815c.83-.136.99-.187 1.197-.385-.427-.53-.725-1.158-1.259-1.675-.08.72.116 1.372.062 2.06m-12.908-3.898c-.027-.024-.076-.022-.179-.048.039.12.045.19.079.238.229.319.39.67.528 1.034.038.1.081.228.229.237.213-.38.211-.608-.043-.885-.19-.207-.406-.388-.614-.576m3.771-.483c-.099-.25-.234-.39-.464-.429.117.16.188.367.464.429m32.651 8.419l.004-.004.001-.004-.005.008"/><path d="M59.077 19.728c-.128-.21 12.82-2.456 12.722-2.683-.058-.137-.094-.285-.139-.428a37.13 37.13 0 0 1-.208-.675c-.018-.06-.002-.135-.03-.188-.132-.244-.26-.492-.413-.723-.246-.369-.342-.843-.77-1.085-.01-.005-.015-.016-.021-.025-.149-.224-.306-.444-.444-.675-.211-.353-.481-.662-.755-.964-.194-.213-.47-.35-.609-.62-.018-.035-.063-.057-.097-.08-.178-.119-.366-.225-.533-.356-.353-.277-.767-.44-1.164-.636-.126-.062-.248-.131-.374-.194-.338-.17-.666-.369-1.019-.5-.362-.134-.756-.17-1.113-.345-.167-.082-.386-.045-.528-.214-.025-.031-.1-.019-.153-.03-.37-.072-.752-.067-1.114-.204a.642.642 0 0 0-.412-.002c-.24.087-.446.037-.66-.06-.118-.053-.248-.086-.358-.152a.982.982 0 0 0-.626-.126 1.793 1.793 0 0 1-.815-.093c-.383-.132-.796-.196-1.202-.239-.503-.052-1.013-.057-1.52-.072-.161-.006-.323.019-.485.029-.365.022-.727.124-1.094.058a1.263 1.263 0 0 0-.61.048 5.76 5.76 0 0 0-.85.318c-.19.094-.408.14-.62.179a1.293 1.293 0 0 0-.477.187c-.363.232-.722.476-1.139.614-.108.037-.205.114-.301.181-.07.05-.125.12-.194.172-.445.327-.888.657-1.338.976-.472.335-.921.694-1.359 1.076-.513.447-.914.974-1.322 1.503-.197.255-.335.56-.608.753a.569.569 0 0 0-.258.388.549.549 0 0 0-.398.188c-.082.085-.167.2-.344.183-.119-.012-.23.11-.26.253-.022.1-.056.185-.179.2a.122.122 0 0 0-.075.056c-.116.197-.229.397-.347.602a9.95 9.95 0 0 0-.079 0c-.072.134-.117.267-.202.368-.154.18-.294.356-.345.597a.478.478 0 0 1-.166.27c-.251.18-.322.469-.472.706-.078.122-.1.279-.152.419-.026.07-.061.136-.09.205-.055.126-.111.253-.163.381-.023.06-.018.143-.058.182-.188.18-.126.358-.022.544.007.014-.008.04-.005.026l-.387.324c-.195-.13-.39-.246-.57-.382-.257-.194-.503-.403-.756-.604-.169-.134-.337-.27-.511-.398-.557-.41-1.185-.71-1.749-1.112-.025-.018-.056-.04-.086-.042-.3-.02-.525-.182-.742-.369-.064-.054-.153-.079-.232-.115-.237-.106-.477-.206-.712-.317-.215-.102-.421-.224-.64-.319a12.867 12.867 0 0 0-.818-.312 24.164 24.164 0 0 1-.788-.29c-.27-.107-.568-.2-.88-.173a2.875 2.875 0 0 1-.519-.004c-.442-.043-.883-.098-1.321.023a.262.262 0 0 1-.13.008c-.16-.04-.3.02-.442.075-.324.125-.648.253-.973.375-.275.102-.554.192-.827.3-.484.19-.966.39-1.447.589a.83.83 0 0 0-.197.11c-.17.133-.33.28-.502.408a53.92 53.92 0 0 1-1.264.91c-.267.186-.563.333-.816.534a2.238 2.238 0 0 1-.549.335.767.767 0 0 0-.26.186c-.278.302-.543.617-.822.919a2.51 2.51 0 0 1-.367.313c-.212.154-.426.299-.464.588-.007.05-.046.097-.071.144-.152.285-.326.56-.45.857a3.186 3.186 0 0 1-.523.814.73.73 0 0 0-.145.28c-.111.361-.094.738-.143 1.107-.075.565-.149 1.13-.306 1.681a4.662 4.662 0 0 0-.124.66c-.024.182.007.373-.038.547-.094.357-.007.71.01 1.06.017.358.163.71.24 1.066.057.263.104.53.133.796.01.102-.043.21-.067.317.195.08.21.08.203.296-.008.24.087.444.2.64.176.309.372.606.56.908l-.128.485c.405-.136.498-.092.719.294.09.158.211.298.316.447.056.08.116.158.156.245.106.229.246.44.332.68.026.072.109.121.16.185.046.055.107.11.12.175.065.295.252.517.43.744.23.298.456.594.566.965.069.236.147.474.382.618.06.037.101.114.13.183.112.257.325.442.48.669.213.306.435.61.767.81.034.02.056.063.084.096.124.149.242.303.373.446.079.085.208.133.262.228.302.526.742.932 1.165 1.354.098.097.185.225.304.28.195.092.318.25.464.39.225.214.446.432.672.646.038.036.093.053.138.082.043.027.086.056.127.085.075.055.143.146.225.16a.578.578 0 0 1 .356.21c.272.325.686.445.996.713.17.146.374.257.53.415.117.12.237.215.39.279.08.033.15.087.221.136.143.097.281.201.426.296.512.336 1.065.61 1.533 1.011.097.083.22.15.342.184.207.058.377.151.504.327.035.05.1.088.158.11.392.144.71.41 1.06.623.091.056.19.102.283.156.12.068.244.133.358.211.124.087.232.195.358.28.241.164.487.323.735.477.332.205.67.4 1 .607.145.091.311.18.407.313.077.107.159.15.269.194.24.098.517.168.697.335.264.245.57.39.885.53.205.093.423.157.639.227.144.045.312.047.434.124.227.142.478.232.705.384.42.281.885.501 1.348.71.378.173.737.368 1.06.625.537.429 1.163.706 1.77 1.01.445.223.908.41 1.37.597.31.124.63.22.947.324.224.073.461.115.676.21.473.207.917.478 1.422.62.191.053.37.111.572.063a.45.45 0 0 1 .253.018c.142.055.272.05.41-.004a.352.352 0 0 1 .189-.02c.23.05.48.05.656.247.02.022.052.047.08.049.248.017.495.043.743.038.177-.004.355-.014.499.094.17.128.349.204.562.222.082.007.165.05.242.087.341.163.68.33 1.048.51.086-.075.18-.118.21-.19.104-.243.296-.414.454-.616.216-.28.376-.602.56-.907.062-.102.117-.202.26-.22.053-.006.117-.059.147-.108.238-.396.472-.794.702-1.194.209-.364.407-.734.617-1.097.195-.335.4-.663.597-.997.12-.205.2-.44.351-.616.16-.186.274-.384.368-.602.017-.04.041-.076.064-.113.233-.375.529-.707.72-1.113.187-.397.425-.77.618-1.164.156-.318.276-.652.505-.933.128-.156.233-.332.331-.509.125-.226.232-.461.348-.693.148-.299.28-.607.452-.892.149-.245.352-.459.381-.763.002-.027.04-.05.056-.078.175-.309.368-.61.518-.93.216-.461.482-.891.744-1.325.053-.088.084-.19.119-.29.082-.233-6.905-2.312-6.714-2.484l-1.126-19.001zM48.037 27c.056-.202.3-.359.546-.327.39.048.727-.068 1.049-.266.424-.26.848-.523 1.272-.784a.732.732 0 0 1 .145-.074c.39-.132.78-.264 1.173-.392.094-.03.202-.045.264.056.062.1.061.22-.02.303a1.249 1.249 0 0 1-.33.255c-.2.099-.323.22-.356.457-.038.266-.17.36-.453.368-.367.01-.667.165-.951.374a2.29 2.29 0 0 1-.36.217c-.146.07-.302.112-.4.263-.028.045-.129.048-.199.06-.11.019-.162.091-.123.183.142.337.287.674.453.999.081.158.182.165.363.098.202-.076.412-.135.608-.225.156-.071.293-.181.443-.266.256-.146.57-.153.818-.321.565-.055.716.385.598.772-.022.072-.131.142-.214.168-.737.231-1.413.595-2.157.928.07.208.125.381.188.55.075.203.155.403.238.603.104.253.232.328.509.257.198-.05.406-.112.572-.224.3-.201.648-.243.974-.353.233-.079.49-.035.622.26.13.293.113.546-.109.735a.483.483 0 0 1-.256.12.837.837 0 0 0-.521.24 5 5 0 0 1-.67.511c-.202.133-.366.333-.523.523a.646.646 0 0 1-.496.257c-.218.014-.365-.068-.446-.25a1.897 1.897 0 0 1-.151-.493c-.057-.397-.215-.763-.335-1.14-.03-.092-.064-.183-.083-.277-.11-.567-.342-1.085-.594-1.603-.18-.366-.34-.738-.546-1.093-.167-.287-.276-.608-.475-.88-.136-.183-.122-.388-.067-.589zm-6.127 3.03c-.319.105-.634.22-.95.335a.665.665 0 0 0-.201.104c-.168.143-.36.233-.565.313-.225.088-.264.18-.171.405.274.665.39 1.364.483 2.07.07.522.125 1.047.2 1.569.04.277.112.55.167.824.023.117.096.187.203.233.214.092.299.256.3.488.001.182.035.364.065.544.028.162.01.315-.13.406-.172.11-.367.232-.578.123-.179-.093-.34-.207-.36-.455-.026-.31-.115-.607-.208-.908-.141-.46-.19-.948-.272-1.425-.06-.337-.12-.675-.166-1.014-.04-.287-.061-.576-.088-.866-.03-.337-.183-.637-.29-.95-.016-.046-.069-.082-.11-.115-.106-.088-.216-.171-.367-.29-.05.02-.138.05-.223.088-.156.07-.305.158-.465.219-.184.069-.356.14-.504.281-.219.209-.494.181-.76.136-.217-.36-.207-.545.004-.836a.45.45 0 0 1 .362-.186c.323-.018.611-.133.893-.28.105-.055.22-.09.33-.137.16-.068.312-.136.391-.315.07-.159.239-.19.39-.183.284.011.536-.073.777-.203.274-.148.544-.306.818-.457.19-.104.326-.247.334-.461.188-.017.326-.023.462-.041a.562.562 0 0 1 .603.424c.056.245-.102.472-.374.56zm3.693 3.06c-.174.08-.238.215-.191.398.018.072.053.14.085.21l.456.964c.055.117.117.231.162.351.04.11.083.225.088.34.01.273-.186.438-.463.406-.074-.008-.147-.027-.242-.046-.035.096-.054.191-.102.27-.04.065-.113.111-.207.197-.157-.267-.313-.486-.42-.725a24.136 24.136 0 0 1-.525-1.289 6.432 6.432 0 0 1-.203-.643c-.037-.137-.114-.214-.243-.277-.328-.161-.384-.314-.23-.648.081-.173.03-.317-.042-.462-.164-.326-.36-.638-.498-.974-.172-.417-.301-.853-.445-1.281-.047-.137-.025-.256.114-.334.106-.06.133-.151.146-.268a.493.493 0 0 1 .124-.25c.09-.102.204-.183.316-.28.157.038.225.17.3.304.085.15.178.295.276.435.201.287.337.6.44.934.112.36.226.72.353 1.076.078.22.148.246.37.203.383-.073.768-.144 1.153-.209.298-.05.44-.283.316-.56-.247-.555-.388-1.139-.503-1.73-.055-.285-.1-.574-.183-.851a2.186 2.186 0 0 0-.254-.522c-.218-.351-.21-.74-.217-1.127-.003-.139.16-.245.331-.252.142-.006.316.106.36.233.006.02.013.043.01.064-.054.461.255.804.4 1.201.055.152.102.307.168.454.27.604.468 1.228.564 1.883.017.116.056.229.09.361.375-.053.482.008.6.32.02.05.034.102.052.153.127.365.096.461-.216.68-.026.017-.047.042-.093.084.02.112.025.241.064.361.17.523.337 1.048.529 1.564.127.342.295.67.445 1.003.021.05.046.098.063.15.1.322-.052.532-.39.541a.578.578 0 0 1-.563-.4c-.11-.358-.203-.726-.345-1.064-.147-.35-.245-.712-.374-1.065-.048-.13-.084-.265-.126-.399-.191-.048-.337.037-.449.15-.187.188-.417.263-.663.317-.064.014-.13.023-.188.05zm8.955 21.056c-.1-.166-.032-.257.089-.413a.47.47 0 0 1-.089.413zm14.55-35.936a.186.186 0 0 0-.007-.095c-.03-.117-.063-.245-.2-.271a.306.306 0 0 0-.312.132c-.044.06-.091.118-.13.168-.115.004-.19-.03-.215-.13-.032-.126-.067-.251-.087-.378a2.41 2.41 0 0 1-.035-.42c.014-.66-.233-1.244-.533-1.812-.085-.162-.16-.322-.16-.554l.453.294c.44.283.85.6 1.208.981.288.308.574.615.79.984l-.772 1.101zm-3.84 22.294c.64.164.127.884 0 1.129-.131.253-.318.48-.495.707-.033.042-.135.05-.203.044-.158-.017-.314-.052-.465-.079-.16.406-.11.536.247.67-.01.214-.08.416-.187.601-.139.243-.298.475-.446.713-.132.21-.283.412-.385.636-.313.682-.79 1.258-1.19 1.885-.271.428-.564.846-.794 1.296-.207.406-.49.75-.753 1.113-.113.157-.21.327-.309.494-.203.343-.394.696-.603 1.032-.293.469-.496.98-.785 1.447-.102.163-.236.307-.347.465-.078.11-.14.232-.22.366-.11-.056-.2-.116-.298-.15-.138-.047-.279-.057-.393.063a.296.296 0 0 0-.06.358c.071.142.182.209.346.166.02-.005.042.006.08.012.058.108.036.218-.018.326-.126.251-.248.503-.38.75a2.55 2.55 0 0 1-.215.32c-.065.085-.14.162-.214.247-.314-.048-.582-.21-.859-.379-.254-.154-.558-.228-.84-.336-.232-.089-.465-.176-.693-.262-.008-.433.62-1.639.987-1.908.157.34.3.447.498.372.153-.057.218-.258.165-.512-.039-.184-.088-.197-.54-.131.037-.09.053-.175.1-.237.582-.782 1.046-1.638 1.548-2.468.157-.258.285-.533.429-.798.02-.037.053-.067.1-.122.073.068.143.127.208.192.183.183.253.202.489.104.078-.032.15-.08.22-.119-.015-.508-.28-.673-.78-.465.034-.098.055-.176.09-.25.233-.498.466-.997.707-1.493a122.035 122.035 0 0 1 1.433-2.828c.491-.949.985-1.897 1.476-2.846.074-.143.137-.292.208-.436 0 0 2.097.166 3.141.31z"/></g><g transform="translate(58 16)"><path d="M4.765 27.924c-.17.024-.218-.05-.238-.157-.117-.626-.216-1.256-.358-1.875a9.996 9.996 0 0 1-.209-1.278c-.007-.072-.042-.143-.073-.21-.066-.143-.048-.267.085-.421.036.109.07.182.084.26.062.351.126.7.272 1.033a.688.688 0 0 1 .038.317c-.017.205.05.383.148.554.167.291.2.606.2.935-.001.224.036.447.054.672.004.051-.002.104-.003.17m.85 3.206c-.129-.066-.141-.175-.167-.278-.056-.23-.106-.462-.175-.688-.037-.121-.113-.23-.159-.348-.057-.147-.099-.3-.15-.45-.046-.142-.108-.28-.14-.426a6.572 6.572 0 0 1-.104-.66c-.004-.039.045-.108.084-.12.039-.013.117.012.14.046a.796.796 0 0 1 .092.235c.05.185.092.373.139.56.01.041.04.082.038.122-.008.148-.005.286.198.313l-.173.285c.176.085.19.248.22.414.033.179.131.348.153.526.018.147.19.311.004.468m39.784-11.194c.442-.116.267-.532.495-.752l.104.38.274-.17c.02.09.046.15.044.208-.006.183-.025.365-.035.548-.006.1-.063.149-.145.195-.052.03-.079.1-.124.162l-.332-.096c-.04-.17.002-.373-.281-.475m.271 1.417c-.036-.01-.081-.01-.09-.029-.114-.222-.066-.436.05-.64.017-.03.082-.064.101-.054a.214.214 0 0 1 .094.111c.012.036-.004.085-.015.125-.042.153-.088.304-.14.487m-5.622-9.965l.851.247.001.056c-.05.022-.102.064-.152.062-.258-.01-.48-.103-.7-.365M9.017 37.44c-.13-.163-.261-.325-.388-.49-.015-.02-.016-.072 0-.089.026-.029.08-.068.103-.058.064.03.144.07.171.128.073.152.12.315.178.474l-.064.034m.426.928c-.076-.053-.159-.099-.23-.159-.12-.103-.067-.183.053-.262.124.11.167.25.177.421m.875 1.938c.246.128.284.3.309.479-.126-.117-.21-.259-.309-.48m31.223-28.358c-.158.012-.244-.078-.362-.167.201.025.201.025.362.167m-3.555-1.364c-.04-.005-.081-.007-.12-.018-.05-.014-.097-.035-.164-.06.148-.038.148-.038.284.078M9.708 38.794l.185.448c-.184-.19-.184-.19-.185-.448M43.946 22.44a67.527 67.527 0 0 0-.304-.107c.145-.102.233-.023.325.042l-.02.065m-33.16 18.575l.2.238c-.213.01-.244-.085-.2-.238m31.425-28.86l.159.137-.033.044-.183-.132.057-.05M3.85 23.707l-.037-.133.082-.01.01.133-.055.01m40.596-1.224c-.051.022-.088.049-.101.04-.03-.02-.048-.056-.07-.087.024-.014.056-.046.072-.04.032.013.056.047.099.087m1.014 6.534c.335.108.477.28.43.55-.042.24-.259.404-.521.392-.289-.014-.4-.172-.43-.63-.121-.042-.248-.11-.382-.125-.196-.024-.25-.146-.275-.306a.645.645 0 0 1-.003-.194c.04-.269.262-.416.518-.332.143.047.303.097.406.196.108.103.158.267.257.449m-6.897 5.347c-.067-.071-.094-.105-.125-.133-.185-.164-.194-.418-.024-.586.09-.089.192-.08.303-.06.158.03.316.053.485.081.251.393.194.532-.298.705.057.1.134.194.165.301.032.111.025.236.024.354-.002.178-.065.274-.184.308-.173.05-.386-.015-.452-.168-.121-.274-.233-.557.106-.802M30.02 42.19c-.093-.072-.199-.134-.279-.219-.199-.211-.165-.487.064-.665.082-.064.156-.136.231-.203-.103-.134-.212-.23-.264-.35-.097-.225-.004-.423.233-.477a1.27 1.27 0 0 1 .51-.008c.22.043.273.192.18.391a.487.487 0 0 1-.27.267c-.088.034-.172.074-.29.125.056.053.083.082.113.106.34.27.302.723-.08.93-.054.03-.104.071-.157.107l.01-.004m3.133-2.683c.157.357-.055.604-.257.837-.155.179-.327.176-.447.043-.144-.159-.143-.376.02-.513.17-.145.353-.276.534-.416-.057-.076-.125-.145-.167-.229a.393.393 0 0 1 .08-.448c.12-.115.256-.148.416-.077.148.064.246.183.23.35a.461.461 0 0 1-.119.248c-.07.077-.174.125-.29.205m-9.734 4.304c-.016-.35.072-.505.293-.539.197-.029.425.109.457.277.044.23-.083.354-.474.455.008.083.017.167.024.251.018.209-.12.355-.322.339a.73.73 0 0 1-.19-.04c-.221-.08-.275-.328-.104-.49.093-.089.202-.162.316-.253m20.639-12.574c.089-.26.254-.379.519-.32.174.04.342.127.498.218.12.07.153.296.068.408-.112.149-.248.275-.46.252-.127-.014-.26-.013-.38-.05-.234-.071-.325-.277-.245-.508M40.42 32.59l.547.702-.016.127c-.052.317-.343.454-.623.295-.02-.01-.034-.028-.052-.04-.369-.221-.395-.471-.093-.772.088-.088.153-.199.238-.312M25.32 41.839c.059.18-.007.298-.135.383-.198.13-.428.054-.503-.164-.055-.163-.01-.269.149-.342.049-.022.103-.033.155-.05l.125-.036c.055-.143-.066-.323.091-.429.06-.04.14-.08.206-.073.282.031.428.108.433.342.004.225-.147.337-.521.369m21.088-13.637c-.078-.04-.139-.064-.194-.097a.523.523 0 0 1-.076-.82c.204-.197.541-.113.643.166.038.1.05.208.09.307.06.15.025.275-.091.378a.44.44 0 0 1-.372.066M33.287 37.49c.043-.039.066-.061.091-.082.222-.189.323-.2.58-.062.187.1.314.343.287.541-.013.097-.061.163-.157.181a3.339 3.339 0 0 1-.35.052c-.263.023-.404-.094-.437-.36-.011-.086-.01-.173-.014-.27m14.484-12.003c-.11-.002-.2-.022-.28 0-.18.051-.267-.059-.333-.183a.517.517 0 0 1 .028-.549c.104-.164.252-.188.42-.166.303.04.433.237.337.529-.043.13-.115.249-.172.369m-10.885 9.477c.042.015.127.037.206.073.122.057.17.165.163.293-.006.125-.082.193-.2.223-.136.036-.27.098-.406.107-.283.019-.399-.1-.396-.383 0-.083.026-.172.064-.246.087-.169.164-.197.346-.148.063.016.122.044.223.08m4.395-2.632c.055-.055.109-.124.176-.177.153-.12.382-.152.482-.05.127.13.258.272.184.484-.014.04-.025.083-.039.124-.111.336-.352.39-.605.133-.138-.139-.18-.314-.198-.514m2.401-2.524c.078-.257.306-.384.55-.308.232.071.33.298.25.582-.058.206-.336.325-.59.253-.205-.059-.29-.269-.21-.527m-5.293 6.89c-.28-.088-.35-.17-.332-.398a.472.472 0 0 1 .44-.445c.222-.022.323.143.435.29.101.132.026.249-.045.357-.126.19-.304.256-.498.196m3.707-2.866c-.01.136-.011.276-.035.41a.497.497 0 0 1-.26.352c-.148.083-.396.106-.473-.025-.118-.197-.13-.517.037-.622.202-.126.416-.289.73-.115m-4.607 2.509c.264.085.368.255.298.487-.08.256-.336.377-.634.296-.19-.051-.297-.308-.222-.535.07-.215.318-.325.558-.248m-1.738-.077c.067.097.114.157.151.222.13.225.115.326-.071.514-.083.084-.168.164-.256.25-.113-.107-.217-.199-.314-.297-.201-.204-.118-.574.105-.662.111-.044.25-.02.386-.027m4.405-1.689c.206.052.374.304.328.498-.049.21-.335.386-.552.34-.198-.043-.313-.278-.255-.522.06-.256.24-.375.479-.316m3.003-3.766c.178.023.26.115.188.393a.94.94 0 0 1-.167.308c-.031.043-.106.07-.164.075a.446.446 0 0 1-.48-.554c.03-.14.228-.28.398-.27.063.003.126.026.225.048m-24.912 13.73c.101.096.186.164.255.245.038.045.077.114.071.166-.033.264-.46.46-.692.325-.162-.093-.23-.292-.176-.51.036-.145.145-.22.348-.229.065-.003.13.002.194.003M42.29 31.164c-.026.033-.074.119-.143.184-.168.162-.368.182-.495.062a.427.427 0 0 1-.019-.607c.023-.024.046-.047.07-.069.15-.14.288-.164.44-.078.15.085.215.263.147.508m1.156 1.271l-.071.396c-.049.035-.121.102-.205.145-.203.104-.39.027-.472-.185a.479.479 0 0 1 .173-.594c.06-.045.112-.102.156-.143l.419.38M21.025 45.425c-.072.066-.13.132-.198.182-.206.151-.453.087-.604-.151-.113-.179-.047-.396.158-.517a.35.35 0 0 1 .421.024.52.52 0 0 1 .223.462m-5.587.842c.09.146.12.277.072.423-.07.212-.314.347-.52.286-.197-.058-.306-.279-.25-.502a.336.336 0 0 1 .365-.257c.107.007.214.031.333.05m20.117-7.831a.424.424 0 0 1-.518.27c-.183-.058-.294-.296-.235-.506.047-.171.328-.362.472-.32.178.05.34.37.28.556m-6.122 1.1c.04-.075.067-.147.112-.205a.305.305 0 0 1 .478-.012.74.74 0 0 1 .173.506c-.002.065-.076.158-.141.186-.197.087-.544-.087-.612-.295-.019-.056-.008-.123-.01-.18m-12.059 6.538c-.076.21-.235.298-.428.236-.231-.074-.362-.319-.286-.535.064-.183.322-.28.523-.198.171.07.26.303.19.497m10.75-4.915c.235.06.437.501.33.717-.056.113-.253.17-.365.084a1.574 1.574 0 0 1-.318-.315c-.086-.118-.033-.243.05-.355.077-.104.17-.16.303-.131m7.792-3.282l.005-.414c.17-.227.423-.18.65-.166.177.01.222.18.111.334-.037.052-.08.1-.117.153-.19.27-.361.297-.649.093m-8.617 2.825c-.212-.054-.39-.263-.397-.412-.01-.162.212-.32.4-.286.182.033.381.249.39.431.007.104-.018.2-.137.226-.103.023-.208.034-.256.041m-.867 2.493c-.131-.023-.2-.117-.218-.264-.017-.145-.016-.279.118-.377.154-.113.373-.144.448-.06.116.13.124.48.014.607-.107.125-.183.146-.362.094m-4.254-.431c.165.047.314.28.274.428-.052.194-.294.333-.485.278a.377.377 0 0 1-.25-.435c.037-.159.304-.316.461-.27m6.648-1.509c-.064-.068-.134-.122-.18-.192-.083-.13-.061-.254.053-.372.086-.09.178-.173.289-.28.124.196.384.268.315.542-.057.23-.245.276-.477.302m-6.02 3.42c-.056.175-.293.298-.47.245-.152-.047-.282-.327-.223-.482.064-.169.25-.271.413-.227.213.06.342.272.28.464m8.606-3.901c-.004-.089-.014-.153-.01-.216.011-.19.117-.318.278-.342.123-.019.325.088.377.2.051.11.015.346-.09.414a.445.445 0 0 1-.269.054c-.091-.01-.178-.067-.285-.11m-5.938 2.275c.157.047.272.284.219.449-.048.148-.282.243-.466.19-.148-.044-.259-.27-.207-.422.05-.15.294-.266.454-.217m5.612-3.867c.057-.209.248-.327.439-.273.147.042.222.219.169.396-.055.18-.287.31-.454.254-.132-.044-.2-.21-.154-.377m-8.227 3.849c0-.106-.012-.223.006-.334a.29.29 0 0 1 .329-.245c.143.023.243.18.22.348-.019.132-.1.217-.234.228-.106.008-.214.003-.32.003m4.463-1.858c-.118.28-.118.28-.357.204.07-.132.199-.15.357-.204m-8.125 4.416c-.053-.036-.095-.052-.115-.082a.223.223 0 0 1-.041-.134c.001-.02.076-.058.1-.047a.188.188 0 0 1 .098.105c.01.04-.022.09-.042.159m4.77-4.816l.192-.143.044.03c-.019.044-.03.12-.057.127-.057.012-.122-.013-.183-.022l.004.008m-12.86-19.331c-.447-.127-.883-.297-1.331-.424-.354-.1-.717-.166-1.079-.236-.081-.016-.172.016-.258.019-.128.004-.198.073-.232.19-.075.259-.15.518-.227.778l-.012-.004c-.072.25-.15.497-.216.748-.05.193-.034.205.132.312.116.076.238.154.33.257a.86.86 0 0 0 .44.258c.221.056.447.097.662.17.325.109.66.13.995.145.133.005.306-.02.395-.103.316-.292.668-.545.92-.91a.632.632 0 0 0 .109-.57c-.085-.336-.29-.533-.628-.63m2.791 3.215c.74.398.899.455 1.183.423-.01-.68.14-1.362.038-2.097-.507.523-.755 1.16-1.221 1.674m-7.81-10.962c-.006-.034-.047-.063-.112-.147-.044.12-.082.178-.084.237a4.43 4.43 0 0 1-.22 1.143c-.031.103-.076.23.036.328.402-.173.541-.354.51-.73-.022-.279-.081-.555-.13-.831m3.282 1.914c.075-.258.054-.451-.104-.623-.005.198-.077.406.103.623" fill="#FF92D1"/><path d="M50.039 26.006c.023-.06.08-.108.091-.168.047-.274.099-.549.12-.826.032-.442.249-.878.06-1.33-.005-.01-.003-.022-.002-.033.02-.27.032-.54.065-.806.05-.41.027-.82-.003-1.227-.022-.287-.156-.564-.1-.863.008-.038-.014-.083-.028-.124-.067-.202-.15-.4-.202-.606-.108-.436-.335-.817-.528-1.215-.062-.125-.116-.255-.176-.382-.163-.34-.3-.698-.498-1.017-.205-.328-.495-.596-.669-.954-.08-.165-.277-.27-.285-.49-.001-.04-.068-.077-.103-.117-.248-.283-.554-.512-.755-.84a.638.638 0 0 0-.326-.254c-.242-.077-.376-.243-.484-.45-.06-.114-.144-.219-.19-.339a.973.973 0 0 0-.417-.482 1.782 1.782 0 0 1-.589-.57c-.221-.338-.508-.64-.802-.921-.367-.35-.767-.663-1.158-.985-.125-.102-.268-.181-.403-.272-.302-.205-.651-.344-.9-.621a1.253 1.253 0 0 0-.513-.333 5.751 5.751 0 0 0-.868-.265 2.42 2.42 0 0 1-.6-.235 1.29 1.29 0 0 0-.494-.142c-.43-.038-.864-.062-1.28-.206-.108-.038-.232-.036-.35-.04-.085-.004-.172.018-.259.017-.553-.01-1.106-.02-1.66-.04-.58-.021-1.157-.01-1.738.027-.682.043-1.323.217-1.973.388-.313.083-.61.241-.944.228a.57.57 0 0 0-.444.15.552.552 0 0 0-.43-.092c-.117.018-.256.057-.385-.065-.087-.081-.25-.052-.362.042-.079.067-.159.114-.265.051-.024-.014-.067-.012-.093-.001-.214.085-.427.175-.647.266l-.061-.048c-.14.063-.258.141-.388.168-.232.05-.452.105-.64.265a.485.485 0 0 1-.3.114c-.307-.011-.541.176-.807.272-.137.05-.252.16-.378.24-.064.04-.133.072-.199.108-.12.068-.243.134-.363.204-.055.033-.102.103-.158.11-.26.027-.32.207-.353.418-.002.016-.031.027-.02.018l-.505.02c-.074-.22-.156-.432-.215-.65-.085-.31-.151-.626-.227-.94-.05-.21-.1-.42-.159-.628-.187-.665-.5-1.286-.698-1.948-.009-.03-.02-.066-.042-.086-.225-.199-.303-.464-.36-.745-.017-.082-.072-.156-.113-.232-.122-.23-.25-.455-.367-.687-.108-.212-.195-.434-.31-.642a12.602 12.602 0 0 0-.454-.747 23.528 23.528 0 0 1-.445-.711c-.148-.248-.326-.505-.59-.673a2.831 2.831 0 0 1-.407-.32c-.324-.303-.639-.616-1.06-.786a.262.262 0 0 1-.108-.073c-.102-.128-.25-.166-.396-.21-.334-.098-.668-.194-1.001-.295-.28-.086-.557-.185-.839-.266-.5-.143-1.004-.278-1.507-.414a.856.856 0 0 0-.224-.033c-.217.003-.434.023-.65.019a53.53 53.53 0 0 1-1.56-.047c-.326-.015-.65-.079-.975-.073a2.21 2.21 0 0 1-.64-.068.769.769 0 0 0-.321-.011c-.407.07-.81.16-1.217.228a2.53 2.53 0 0 1-.483.026c-.263-.007-.522-.023-.73.184-.037.036-.095.05-.145.07-.296.135-.603.248-.884.407a3.21 3.21 0 0 1-.916.328.746.746 0 0 0-.286.133c-.311.221-.53.53-.796.794-.408.402-.814.806-1.279 1.148a4.89 4.89 0 0 0-.505.45c-.13.129-.224.3-.367.41-.294.226-.443.56-.645.848-.208.296-.308.663-.467.993a7.631 7.631 0 0 1-.386.713c-.054.088-.163.142-.248.211.105.183.117.192-.022.359-.154.186-.205.406-.237.63-.05.352-.078.708-.117 1.063l-.4.307c.405.138.451.23.388.671-.025.18-.016.366-.025.548-.005.097-.005.196-.028.29-.057.246-.076.5-.156.743-.024.072.011.162.013.244.002.071.016.153-.013.212-.13.273-.12.564-.12.852 0 .378-.004.75-.146 1.112-.09.23-.176.466-.079.724.025.065.01.152-.009.224-.07.273-.016.55-.032.824-.021.373-.033.75.106 1.11.015.038.006.085.008.128.006.194.004.389.02.582.01.115.082.232.067.34-.086.602.012 1.193.087 1.785.017.138.007.292.067.409.098.191.098.392.128.591.045.307.086.616.133.923.008.052.04.1.059.15.018.047.033.096.047.145.026.09.024.203.08.263.107.114.147.25.152.385.015.423.268.771.35 1.172.043.22.136.432.162.653.02.167.055.315.137.46.042.074.064.16.09.242.054.164.1.331.156.495.198.578.466 1.133.589 1.737a.923.923 0 0 0 .157.354c.128.173.205.35.197.568-.003.06.025.13.058.183.22.353.308.757.453 1.14.038.101.088.197.13.297.052.128.11.254.151.386.045.144.065.296.111.44.09.278.187.554.288.827.136.365.283.725.417 1.091.059.162.135.333.13.496a.538.538 0 0 0 .092.319c.13.224.306.448.345.69.058.356.212.657.373.96.105.2.239.384.366.57.086.124.218.228.267.363.092.251.235.476.321.735.159.479.392.937.628 1.386.194.367.357.74.454 1.142.161.667.485 1.269.778 1.88.215.448.466.88.717 1.309.167.287.361.559.549.834.132.195.293.373.405.578.247.454.43.94.743 1.36.118.159.224.313.413.399a.451.451 0 0 1 .19.168c.078.13.184.206.327.247a.343.343 0 0 1 .16.099c.152.18.35.333.368.596.003.03.012.07.034.088.185.164.365.335.563.482.143.105.29.205.337.38.055.205.15.374.308.517.061.056.1.14.139.217.168.338.333.677.514 1.044.114-.007.214.015.282-.023.233-.13.49-.148.74-.213.343-.09.668-.248 1.001-.378.112-.044.218-.09.342-.017.046.028.13.024.182.004.433-.17.864-.343 1.292-.52.39-.163.775-.336 1.165-.496.36-.148.725-.282 1.086-.429.221-.09.43-.227.659-.274.24-.05.453-.14.661-.255.038-.02.08-.035.12-.05.415-.156.855-.24 1.256-.445.393-.202.81-.353 1.207-.549.32-.157.62-.35.974-.433a3.54 3.54 0 0 0 .576-.202c.238-.103.468-.225.702-.34.302-.146.596-.31.908-.432.268-.104.56-.15.771-.374.019-.02.063-.015.093-.027.328-.14.667-.26.983-.424.455-.235.93-.414 1.405-.599.097-.037.184-.1.272-.157.21-.136.418-.276.675-.295.523-.04.947-.31 1.31-.643.267-.247.55-.445.87-.608.328-.166.676-.292.975-.514.18-.134.361-.28.566-.37a1.28 1.28 0 0 0 .45-.308c.163-.18.343-.324.592-.368a.34.34 0 0 0 .17-.09.62.62 0 0 1 .435-.192c.105-.003.197-.051.217-.163.025-.14.123-.19.239-.237.09-.036.17-.094.255-.141.216-.121.431-.244.65-.362.217-.118.453-.209.654-.348.363-.252.702-.536 1.058-.796.146-.108.33-.17.464-.288.21-.184.345-.458.64-.533.314-.078.379-.444.665-.548.01-.004.022-.007.03-.014.023-.022.055-.042.065-.07.083-.241.304-.327.503-.426a.875.875 0 0 0 .344-.285c.231-.326.496-.64.854-.818.342-.172.597-.439.82-.709.302-.365.658-.677.95-1.047.207-.262.472-.479.593-.804.017-.045.073-.076.113-.11.065-.058.138-.106.197-.168.259-.275.503-.565.773-.828.264-.258.534-.506.703-.84.034-.066.087-.147.149-.168.22-.071.308-.26.43-.422a.99.99 0 0 1 .243-.256.647.647 0 0 0 .242-.296 1.45 1.45 0 0 1 .114-.194c.262-.382.538-.753.593-1.239.028-.244.097-.484.16-.723.038-.145.1-.284.153-.425.083-.221.165-.443.252-.663zm-36.497-10.98c.17-.088.219-.233.25-.392.072-.36.11-.726.207-1.077.121-.437.288-.86.437-1.29.048-.136.14-.218.297-.195.12.018.198-.039.281-.124a.5.5 0 0 1 .252-.123c.134-.026.274-.021.423-.03.1.126.072.273.05.425-.025.17-.041.342-.05.514-.018.35-.104.682-.227 1.008-.135.355-.265.711-.385 1.07-.074.224-.034.286.168.388.348.175.696.353 1.04.537.267.142.523.042.596-.254.147-.59.396-1.14.669-1.68.132-.26.274-.517.38-.788.07-.178.1-.376.12-.569.044-.411.29-.716.523-1.027.083-.112.277-.097.417.001.116.082.185.277.14.405a.154.154 0 0 1-.03.057c-.328.334-.294.795-.425 1.197-.05.154-.107.307-.146.464a7.162 7.162 0 0 1-.715 1.839c-.057.102-.096.216-.151.342.33.186.376.3.278.619-.016.052-.036.102-.053.154-.125.367-.209.425-.59.407-.032 0-.064.006-.126.011-.054.1-.129.207-.172.326-.188.519-.379 1.038-.545 1.564-.11.35-.18.711-.267 1.068-.013.053-.023.106-.042.157-.12.317-.37.392-.642.193a.576.576 0 0 1-.198-.661c.133-.35.286-.7.382-1.056.1-.368.245-.714.361-1.073.042-.133.096-.261.146-.394-.122-.155-.29-.176-.447-.155-.264.037-.493-.044-.721-.152-.058-.027-.117-.06-.18-.075-.185-.042-.32.025-.395.2-.03.068-.045.144-.062.218l-.234 1.044c-.028.126-.05.255-.089.378a1.14 1.14 0 0 1-.138.322c-.16.224-.418.235-.617.041-.054-.051-.1-.11-.164-.184-.087.055-.16.12-.246.152-.073.028-.159.02-.286.032.04-.309.052-.577.114-.833.11-.452.245-.898.38-1.343a6.68 6.68 0 0 1 .235-.635c.056-.13.043-.24-.02-.368-.161-.328-.111-.484.217-.654zm-5.072-.393c-.27.34-.538.68-.815 1.013-.145.175-.31.332-.463.5-.262.289-.522.58-.783.869-.043.048-.085.101-.137.136-.082.054-.188.016-.207-.08a1.231 1.231 0 0 1-.018-.322c.01-.14.037-.279.06-.418.024-.14.033-.278-.06-.424-.183.028-.233.158-.298.265-.152.25-.295.505-.447.754-.038.06-.098.107-.16.172-.158-.128-.144-.283-.098-.422.08-.24.1-.484.127-.732.038-.363.13-.72.192-1.08.03-.17.067-.344.063-.514-.008-.427.096-.836.162-1.252a1.42 1.42 0 0 1 .202-.54 1.71 1.71 0 0 0 .2-.51 73.09 73.09 0 0 0 .412-1.903c.041-.2.06-.406.073-.611a.385.385 0 0 0-.064-.212c-.191-.307-.241-.6.047-.882.036-.036.045-.096.072-.143.136-.242.42-.266.581-.039a.86.86 0 0 1 .124.297c.148.62.14 1.244.034 1.871-.05.3-.098.598-.233.874a.303.303 0 0 0-.036.124c-.007.508-.143 1.008-.083 1.52.021.183 0 .37.024.551.025.178.084.35.131.539.061-.026.1-.03.115-.051.263-.366.636-.619.945-.936.241-.246.455-.52.683-.78.141-.161.287-.32.438-.489.129.096.245.171.348.261a.98.98 0 0 1 .317.625c.042.31.119.624.104.932-.012.274.087.525.083.794-.002.127.088.255.128.363.17.025.215-.075.267-.152.2-.296.386-.602.59-.896.283-.41.583-.809.862-1.222.167-.25.3-.522.459-.778.185-.3.32-.63.566-.892.151-.16.316-.263.549-.167.128.052.231.006.307-.11.033-.052.078-.096.113-.139.145.051.123.16.13.252.018.302-.073.59-.197.849-.259.536-.561 1.05-.845 1.574-.277.512-.727.886-1.08 1.336-.409.52-.827 1.031-1.24 1.548-.153.193-.219.42-.245.662a2.479 2.479 0 0 1-.062.35c-.06.233-.19.378-.457.381-.083.002-.171.073-.245.128-.06.044-.096.12-.153.167-.117.097-.228.053-.263-.098-.009-.042-.01-.086-.012-.13-.017-.424-.134-.828-.252-1.233a1.203 1.203 0 0 1-.066-.412c.033-.472-.08-.923-.146-1.402a.775.775 0 0 0-.343.264zm2.553 9.96c-.152.191-.43.284-.627.144-.229-.163-.487-.233-.748-.3-.295-.076-.597-.119-.892-.192-.273-.07-.541-.16-.811-.241-.072-.022-.143-.053-.217-.07-.113-.023-.195.024-.224.135a3.588 3.588 0 0 0-.085.414c-.035.268-.061.538-.088.807-.024.247-.048.49-.158.723-.063.132-.08.293-.092.442-.033.405-.307.676-.845.484-.07-.025-.138-.055-.214-.085a.748.748 0 0 0-.269.545c-.008.216-.137.338-.292.438-.064.042-.165.042-.246.033-.083-.008-.131-.075-.113-.165.013-.064.037-.125.054-.188.09-.323.15-.657.274-.966.154-.385.23-.788.338-1.183.164-.594.317-1.192.443-1.795.084-.402.159-.805.303-1.192.026-.069.047-.156.028-.222-.068-.232.044-.348.255-.412-.076-.574.247-.996.516-1.437.062-.1.14-.192.216-.285.105-.127.24-.191.404-.14.279.086.558.064.84.026a.464.464 0 0 1 .189.013c.346.103.7.164 1.06.121.21-.025.414-.01.61.051.342.107.68.224 1.014.352.095.037.207.112.247.198.126.275.333.482.536.689.532.54.398 1.13.105 1.565-.268.401-.63.713-.956 1.06a9.74 9.74 0 0 0-.555.633zm4.849 5.088c-.165.108-.332.113-.485-.01-.205-.163-.317-.356-.268-.647.052-.306.04-.622.044-.934.005-.303-.007-.606-.007-.909.001-.29.008-.581.013-.896-.303-.137-.577-.266-.856-.385-.118-.05-.245-.083-.37-.118-.156-.043-.31-.075-.439-.194-.12-.11-.186-.09-.29.057-.36.514-.716 1.031-1.07 1.543.042.133.208.18.157.35-.052.169-.092.328-.251.436-.224.152-.444.31-.652.483-.096.08-.171.191-.234.3-.171.294-.424.355-.741.169-.249-.146-.296-.433-.106-.7.113-.158.24-.305.361-.457.412-.517.834-1.025 1.231-1.552.318-.424.613-.865.816-1.36.032-.08.074-.157.121-.23.14-.216.292-.425.427-.645.228-.368.451-.74.67-1.113.13-.224.256-.451.372-.682.11-.223.314-.347.527-.231.222.12.435.08.657.08.123 0 .185-.072.24-.202.094.108.178.19.246.284.382.533.527 1.107.296 1.745-.147.408-.287.817-.275 1.26.003.115-.076.256-.032.336.056.1.202.152.308.224l.032.025c.048.16.062.321.142.436.072.102.218.152.333.226-.019.086-.042.158-.048.232-.016.182-.11.295-.278.363-.164.066-.321.147-.344.352-.005.043-.017.086-.016.128.002.204.007.409.012.613l.024 1.065c.006.232-.066.426-.267.558zm5.16-14.958c-.209.475-.43.944-.713 1.38-.029.046-.071.088-.084.138-.104.394-.32.755-.35 1.173-.02.27-.058.538-.08.808-.008.117-.023.244.012.352a.564.564 0 0 1-.088.524c-.1.135-.115.271-.127.422-.027.326-.188.425-.499.375-.253-.04-.397-.184-.526-.406l.1-.435c-.134-.022-.188.058-.247.133a17.21 17.21 0 0 1-.385.482.653.653 0 0 1-.17.15c-.037.021-.104.016-.145-.003-.026-.013-.043-.078-.036-.114.018-.083.05-.165.083-.245.16-.378.323-.755.484-1.132a.368.368 0 0 1 .045-.086c.36-.444.54-.984.806-1.478.268-.495.507-1.003.727-1.519.119-.277.197-.57.296-.856.091-.264.183-.528.279-.791.08-.222.211-.315.405-.297.157.015.353.218.366.407.024.35-.012.694-.154 1.018zm10.138 9.66c.108-.188.237-.365.327-.56.163-.353.308-.715.452-1.076.273-.683.49-1.388.825-2.047.06-.115.099-.24.154-.358.072-.156.142-.314.23-.462.145-.241.23-.497.251-.847-.04-.032-.088-.076-.141-.108-.1-.059-.13-.143-.094-.248a.542.542 0 0 0-.018-.379c-.055-.15-.01-.3.066-.437.093-.169.216-.24.404-.194.304.075.612.15.844.39.252.264.573.434.9.578.233.103.492.148.743.208.179.043.36.084.543.099.214.017.445.054.643-.005.286-.087.482.024.687.174.06.044.122.122.183.121.223-.002.304.154.43.295.237.268.306.589.378.915.05.223.09.447.146.667.035.135.082.27.148.392.072.133.159.249.174.411.013.138.114.165.242.095.018-.011.038-.023.052-.038.146-.156.303-.142.462-.024.28-.16.538-.282.763-.446.227-.166.434-.355.7-.464.042-.018.071-.079.099-.124a.5.5 0 0 1 .272-.21c.147-.056.268-.177.404-.266.23-.15.462-.295.727-.465.03.12.076.205.064.279-.026.154.048.244.15.335.113.102.244.215.187.384-.07.211-.04.49-.338.574-.093.026-.183.063-.275.093-.062.02-.137.023-.184.06-.468.36-1.055.506-1.526.86-.162.123-.356.203-.538.298-.152.079-.264.185-.296.363-.036.198-.148.348-.29.494-.273.282-.459.628-.618.985-.19.425-.385.849-.559 1.28-.157.39-.314.775-.291 1.219.026.482-.348.699-.793.496l-.175-.082c-.064.106-.12.204-.182.3-.154.242-.268.288-.601.23.015-.08.015-.166.048-.238.157-.343.302-.695.494-1.019.24-.408.287-.883.5-1.297.122-.24.258-.472.39-.707.02-.036.056-.066.071-.104.192-.481.38-.963.557-1.408-.074-.244-.137-.46-.205-.672-.095-.298-.199-.594-.292-.893-.06-.195-.105-.394-.167-.589a27.49 27.49 0 0 0-.372-1.106c-.02-.052-.125-.114-.178-.104-.265.051-.49-.085-.73-.133-.288-.057-.57-.117-.865-.147-.342-.034-.677-.151-1.013-.24a8.491 8.491 0 0 1-.53-.162c-.148-.049-.253-.006-.325.13-.108.2-.225.396-.326.6-.099.201-.072.281.132.394.39.218.794.398 1.242.469.294.045.496.214.56.514a.476.476 0 0 1-.186.518.44.44 0 0 1-.52.026c-.166-.1-.329-.204-.494-.305-.028-.017-.055-.037-.086-.046-.27-.084-.536-.18-.81-.245-.352-.084-.47-.02-.607.318-.139.34-.258.689-.388 1.033-.072.192-.154.382-.222.576-.072.206-.051.255.137.372.274.171.59.219.898.279.34.066.686.111 1.03.165a.593.593 0 0 1 .387.923c-.127.176-.405.256-.58.111-.278-.233-.612-.258-.938-.332-.222-.05-.44-.121-.663-.167-.18-.036-.365-.05-.548-.07-.123-.012-.203.039-.247.162a.944.944 0 0 1-.15.284c-.208.245-.535.204-.709-.065-.126-.195-.14-.383-.026-.58zm-.92 5.056c-.033.175.042.242.226.299.208.063.41.144.62.192.168.039.344.034.515.058.293.04.544.226.845.243.48.301.329.743-.003.979-.062.043-.191.033-.273.003-.725-.265-1.484-.389-2.279-.578-.072.21-.136.38-.19.552-.065.206-.126.415-.183.623-.074.265-.019.403.244.515.188.08.391.158.592.17.36.023.661.203.986.313.234.08.41.27.333.585-.078.314-.248.504-.54.52a.488.488 0 0 1-.277-.062.832.832 0 0 0-.56-.127 5.05 5.05 0 0 1-.844-.002c-.242-.017-.495.041-.736.096a.647.647 0 0 1-.551-.098c-.182-.122-.247-.276-.199-.47.041-.167.1-.335.185-.483.2-.35.3-.737.437-1.11.033-.091.063-.185.106-.27.262-.518.398-1.07.517-1.636.084-.4.187-.793.242-1.201.045-.33.157-.65.166-.988.006-.228.144-.383.311-.509.168-.126.458-.102.633.073.279.277.618.39.994.428.497.051.994.101 1.49.153a.714.714 0 0 1 .16.03c.39.132.78.265 1.17.403.093.033.187.087.174.205-.012.116-.087.211-.202.228a1.26 1.26 0 0 1-.42.002c-.218-.044-.39-.021-.562.146-.194.188-.356.182-.585.015-.296-.215-.63-.275-.984-.281a2.3 2.3 0 0 1-.418-.047c-.158-.033-.308-.096-.478-.034-.05.017-.132-.042-.194-.075-.1-.052-.185-.026-.21.07-.096.355-.19.71-.258 1.07zm-4.134-7.208c.157-.343.317-.683.503-1.011.052-.091.05-.21.09-.309.11-.27.23-.536.345-.804.19-.446.42-.877.548-1.351.059-.217.178-.418.278-.623.247-.503.325-1.052.439-1.592.035-.167.09-.333.161-.488.115-.25.273-.284.491-.122.06.044.11.098.166.15.038-.023.067-.036.09-.057.296-.267.633-.19.764.186.07.202.144.408.018.627-.039.067-.03.17-.022.254.057.61-.028 1.21-.094 1.813-.055.494-.113.989-.17 1.483-.019.162.023.297.17.402.168-.046.184-.199.232-.324.15-.395.282-.797.45-1.184.335-.775.66-1.554 1.058-2.3.122-.228.209-.475.32-.708.043-.087.103-.167.168-.239.122-.134.241-.16.378-.102.176.076.264.196.25.374-.016.178-.048.355-.075.56l.253.073.033.333c-.179.092-.223.27-.305.433a33.397 33.397 0 0 1-.934 1.712c-.197.335-.44.643-.66.964a7.912 7.912 0 0 0-.879 1.62c-.084.22-.099.464-.154.695-.037.156-.07.317-.138.46-.081.17-.265.224-.446.168-.275-.086-.442-.32-.374-.6.11-.453.015-.895-.012-1.344-.035-.59-.213-1.178-.07-1.776a.278.278 0 0 0 .01-.096c-.06-.5.084-.985.102-1.478.011-.3-.024-.6-.04-.937-.09.253-.166.475-.249.695-.125.335-.247.67-.383 1-.209.512-.43 1.018-.643 1.528-.1.238-.198.478-.29.72a1.355 1.355 0 0 0-.088.606.68.68 0 0 1-.03.288c-.116.313-.232.628-.376.93-.154.323-.534.365-.78.107-.286-.3-.281-.35-.105-.736zm-.779 2.66c.34-.116.648-.051.97.096.227.103.392.27.561.425.352.32.516.767.676 1.202.076.203.08.425-.072.619-.108.136-.232.232-.415.198-.181-.034-.344-.067-.423-.29a3.93 3.93 0 0 0-.403-.813 1.094 1.094 0 0 0-.552-.437c-.166-.058-.319-.035-.494.051-.4.196-.686.527-1.006.808-.25.221-.464.508-.658.789-.157.227-.243.502-.353.76-.07.17-.102.36-.196.515-.125.204-.124.409-.09.625.032.215.073.428.102.642.05.359.242.647.465.914.205.247.644.344.953.24.272-.09.521-.226.713-.437.08-.09.158-.228.15-.339-.012-.2.06-.33.2-.45.07-.06.128-.132.24-.248-.236-.02-.408-.061-.575-.046-.4.038-.744-.098-1.07-.3a.468.468 0 0 1-.064-.75c.12-.105.26-.093.402-.055.199.055.397.12.6.153.427.068.859.113 1.288.178.203.03.403.085.605.128.242.05.412.18.478.432-.337.394-.62.825-.802 1.317-.034.09-.05.188-.075.282-.06.23-.109.464-.185.689a2.234 2.234 0 0 0-.11.698c-.004.302-.155.558-.339.791-.073.092-.176.12-.293.101-.38-.058-.585-.409-.443-.763.153-.382.153-.382.136-.596-.135-.057-.256.013-.357.081-.344.232-.741.238-1.127.262-.26.015-.474-.156-.675-.297-.263-.185-.503-.402-.745-.614-.216-.188-.4-.414-.456-.697-.07-.357-.142-.716-.147-1.084-.005-.33.07-.635.204-.94.093-.21.21-.415.239-.66.019-.162.124-.32.215-.464.098-.156.213-.292.232-.49.01-.099.082-.2.146-.283.202-.267.4-.541.628-.786.212-.23.45-.438.695-.631.168-.133.381-.206.552-.335a.917.917 0 0 1 .514-.173c.054-.005.111-.002.161-.019zm-3.046-10.155a.449.449 0 0 1 .4.072c.267.183.566.268.88.322.117.02.23.062.346.093.168.043.33.082.503-.012.153-.084.305-.005.421.092.218.181.469.268.74.312.309.05.62.088.928.136.216.033.411.002.549-.164.159.102.272.182.392.25a.56.56 0 0 1 .215.704c-.107.23-.372.312-.642.217-.317-.11-.637-.211-.957-.312a.657.657 0 0 0-.224-.041 1.913 1.913 0 0 1-.64-.095c-.232-.068-.32-.018-.385.217-.193.695-.532 1.321-.893 1.938-.267.458-.547.908-.809 1.37-.139.243-.25.503-.376.754-.054.108-.04.207.017.31.113.203.079.385-.063.57-.112.145-.197.31-.284.472-.078.145-.187.256-.354.242-.204-.016-.432-.038-.532-.253-.085-.183-.141-.372-.005-.582.17-.261.283-.552.395-.847.172-.452.435-.869.663-1.299.16-.303.321-.607.494-.905.146-.252.307-.496.465-.742.183-.286.247-.617.355-.932.016-.045-.003-.106-.015-.157-.03-.135-.066-.268-.113-.455-.05-.014-.14-.045-.23-.065-.167-.039-.34-.06-.503-.11-.188-.057-.368-.105-.572-.083-.301.032-.503-.158-.686-.355.051-.418.173-.56.52-.662zm-2.072 12.617c-.173.589-.374 1.17-.568 1.753-.132.398-.28.792-.406 1.193-.037.12-.024.256-.034.384-.019.281-.175.459-.452.512-.196.038-.489-.103-.572-.295-.077-.177-.047-.37.02-.538.222-.551.464-1.094.691-1.643.07-.17.122-.346.176-.522.091-.297.183-.595.263-.896.058-.219.086-.445.149-.662.087-.3.198-.594.294-.892.126-.39.258-.779.37-1.173.079-.28.253-.44.53-.511.123-.032.202.003.276.106.183.251.173.523.11.817-.038.09-.072.193-.124.287-.36.653-.515 1.374-.723 2.08zm-7.095 18.703c.024-.192.134-.223.326-.274a.478.478 0 0 1-.326.274zm34.464-18.539c-.15.322-.349.62-.526.93-.005.009-.013.018-.016.028-.213.704-.655 1.29-.989 1.932-.117.226-.273.435-.335.692-.02.088-.103.163-.163.24-.22.282-.435.568-.663.843-.117.14-.255.263-.39.388-.205.191-.423.368-.62.566-.313.312-.622.625-1.026.824-.038.018-.095.032-.108.063-.086.203-.281.321-.394.487-.241.354-.595.562-.9.833-.04.036-.086.067-.126.102-.219.194-.428.399-.656.58-.313.25-.636.487-.962.72-.352.251-.712.493-1.07.737-.186.127-.356.285-.585.343-.04.01-.075.043-.106.071-.465.419-1.043.653-1.578.956-.084.047-.17.09-.248.147-.254.179-.495.372-.783.505-.245.113-.467.276-.697.418-.313.193-.595.436-.957.544-.048.014-.082.07-.128.098-.184.113-.366.23-.557.33-.47.247-.94.493-1.418.723-.272.131-.558.233-.84.345a9.11 9.11 0 0 1-.486.18c-.078.026-.162.034-.244.05-.234.154-.456.334-.707.451-.26.121-.547.188-.827.26-.053.014-.139-.042-.187-.089-.115-.11-.217-.233-.32-.346-.376.225-.417.36-.217.684-.14.163-.32.28-.519.363-.26.108-.528.195-.792.294-.234.087-.478.155-.697.27-.667.352-1.401.518-2.103.773-.478.174-.968.328-1.427.545-.414.196-.85.297-1.282.426-.186.055-.367.131-.548.204-.373.148-.741.312-1.114.451-.521.194-.996.478-1.513.671-.181.068-.376.1-.56.159-.13.04-.255.098-.401.156-.052-.111-.086-.214-.143-.3-.08-.121-.185-.215-.35-.19a.3.3 0 0 0-.268.248c-.031.156.016.277.172.343.018.007.03.03.055.058-.02.12-.105.195-.215.249-.254.121-.506.247-.763.362a2.631 2.631 0 0 1-.367.123c-.103.028-.21.044-.322.066-.218-.229-.33-.521-.445-.823-.106-.278-.301-.522-.458-.78l-.387-.63c.261-.348 1.501-.924 1.957-.914-.085.366-.037.539.165.6.156.047.33-.073.446-.306.083-.17.052-.21-.347-.434.084-.049.15-.106.226-.128.943-.266 1.836-.663 2.746-1.016.283-.11.554-.25.831-.373.039-.017.083-.02.154-.036.016.1.035.189.046.28.032.257.077.314.323.38.082.022.169.028.248.04.3-.413.192-.706-.331-.845.087-.057.153-.106.225-.143.492-.254.984-.509 1.48-.755a89.75 89.75 0 0 1 1.465-.71c.469-.225.94-.444 1.412-.664.974-.454 1.948-.906 2.921-1.361.147-.068.289-.148.434-.22.378-.188.764-.363 1.132-.568.245-.136.464-.315.696-.473.143-.098.283-.2.433-.286.328-.185.66-.362 1.007-.55.014.06.03.09.026.116-.021.15-.063.309.057.433.158.162.313.342.553.372.088.012.189-.028.275-.064.109-.045.136-.144.092-.245-.083-.187-.179-.37-.268-.554-.092-.192-.273-.185-.486-.18.042-.064.055-.105.084-.124.622-.396 1.242-.797 1.87-1.182.436-.267.889-.504 1.325-.768.39-.236.767-.491 1.15-.737.054-.036.106-.076.163-.107.267-.144.525-.294.758-.498.242-.212.535-.365.792-.563.369-.284.72-.591 1.088-.876a97.506 97.506 0 0 1 1.658-1.254c.428-.316.833-.659 1.226-1.018.51-.467 1.047-.905 1.569-1.36.104-.091.188-.204.282-.306.051-.056.095-.123.155-.166.419-.296.77-.66 1.105-1.042a.615.615 0 0 1 .097-.087 3.87 3.87 0 0 0 .882-.86c.042-.059.11-.1.157-.143.038.006.061.004.08.013.13.062.208.211.4.166.258-.06.5-.141.715-.295a.19.19 0 0 0 .054-.08c.048-.11.1-.233.008-.336a.305.305 0 0 0-.329-.086c-.071.021-.144.038-.206.054-.093-.068-.131-.14-.09-.235.052-.118.102-.24.165-.353.069-.123.142-.245.23-.354.419-.516.583-1.13.696-1.764.033-.181.072-.354.215-.537l.177.51c.173.491.303.994.351 1.514.038.42.075.838.019 1.263-.073.545-.26 1.051-.488 1.542z" fill="#FF92D1"/><path d="M30.011 42.194l.006-.002a.017.017 0 0 0 .004-.002l-.01.004m-18.904-20.75c-.447-.127-.883-.297-1.331-.424-.354-.1-.717-.166-1.079-.236-.081-.016-.172.016-.258.019-.128.004-.198.073-.232.19-.075.259-.15.518-.227.778l-.012-.004c-.072.25-.15.497-.216.748-.05.193-.034.205.132.312.116.076.238.154.33.257a.86.86 0 0 0 .44.258c.221.056.447.097.662.17.325.109.66.13.995.145.133.005.306-.02.395-.103.316-.292.668-.545.92-.91a.632.632 0 0 0 .109-.57c-.085-.336-.29-.533-.628-.63m2.791 3.215c.74.398.899.455 1.183.423-.01-.68.14-1.362.038-2.097-.507.523-.755 1.16-1.221 1.674m-7.81-10.962c-.006-.034-.047-.063-.112-.147-.044.12-.082.178-.084.237a4.43 4.43 0 0 1-.22 1.143c-.031.103-.076.23.036.328.402-.173.541-.354.51-.73-.022-.279-.081-.555-.13-.831m3.282 1.914c.075-.258.054-.451-.104-.623-.005.198-.077.406.103.623" fill="#FF92D1"/><use stroke="#FFF" mask="url(#b)" stroke-width="6" xlink:href="#a"/><path d="M50.039 26.006c.023-.06.08-.108.091-.168.047-.274.099-.549.12-.826.032-.442.249-.878.06-1.33-.005-.01-.003-.022-.002-.033.02-.27.032-.54.065-.806.05-.41.027-.82-.003-1.227-.022-.287-.156-.564-.1-.863.008-.038-.014-.083-.028-.124-.067-.202-.15-.4-.202-.606-.108-.436-.335-.817-.528-1.215-.062-.125-.116-.255-.176-.382-.163-.34-.3-.698-.498-1.017-.205-.328-.495-.596-.669-.954-.08-.165-.277-.27-.285-.49-.001-.04-.068-.077-.103-.117-.248-.283-.554-.512-.755-.84a.638.638 0 0 0-.326-.254c-.242-.077-.376-.243-.484-.45-.06-.114-.144-.219-.19-.339a.973.973 0 0 0-.417-.482 1.782 1.782 0 0 1-.589-.57c-.221-.338-.508-.64-.802-.921-.367-.35-.767-.663-1.158-.985-.125-.102-.268-.181-.403-.272-.302-.205-.651-.344-.9-.621a1.253 1.253 0 0 0-.513-.333 5.751 5.751 0 0 0-.868-.265 2.42 2.42 0 0 1-.6-.235 1.29 1.29 0 0 0-.494-.142c-.43-.038-.864-.062-1.28-.206-.108-.038-.232-.036-.35-.04-.085-.004-.172.018-.259.017-.553-.01-1.106-.02-1.66-.04-.58-.021-1.157-.01-1.738.027-.682.043-1.323.217-1.973.388-.313.083-.61.241-.944.228a.57.57 0 0 0-.444.15.552.552 0 0 0-.43-.092c-.117.018-.256.057-.385-.065-.087-.081-.25-.052-.362.042-.079.067-.159.114-.265.051-.024-.014-.067-.012-.093-.001-.214.085-.427.175-.647.266l-.061-.048c-.14.063-.258.141-.388.168-.232.05-.452.105-.64.265a.485.485 0 0 1-.3.114c-.307-.011-.541.176-.807.272-.137.05-.252.16-.378.24-.064.04-.133.072-.199.108-.12.068-.243.134-.363.204-.055.033-.102.103-.158.11-.26.027-.32.207-.353.418-.002.016-.031.027-.02.018l-.505.02c-.074-.22-.156-.432-.215-.65-.085-.31-.151-.626-.227-.94-.05-.21-.1-.42-.159-.628-.187-.665-.5-1.286-.698-1.948-.009-.03-.02-.066-.042-.086-.225-.199-.303-.464-.36-.745-.017-.082-.072-.156-.113-.232-.122-.23-.25-.455-.367-.687-.108-.212-.195-.434-.31-.642a12.602 12.602 0 0 0-.454-.747 23.528 23.528 0 0 1-.445-.711c-.148-.248-.326-.505-.59-.673a2.831 2.831 0 0 1-.407-.32c-.324-.303-.639-.616-1.06-.786a.262.262 0 0 1-.108-.073c-.102-.128-.25-.166-.396-.21-.334-.098-.668-.194-1.001-.295-.28-.086-.557-.185-.839-.266-.5-.143-1.004-.278-1.507-.414a.856.856 0 0 0-.224-.033c-.217.003-.434.023-.65.019a53.53 53.53 0 0 1-1.56-.047c-.326-.015-.65-.079-.975-.073a2.21 2.21 0 0 1-.64-.068.769.769 0 0 0-.321-.011c-.407.07-.81.16-1.217.228a2.53 2.53 0 0 1-.483.026c-.263-.007-.522-.023-.73.184-.037.036-.095.05-.145.07-.296.135-.603.248-.884.407a3.21 3.21 0 0 1-.916.328.746.746 0 0 0-.286.133c-.311.221-.53.53-.796.794-.408.402-.814.806-1.279 1.148a4.89 4.89 0 0 0-.505.45c-.13.129-.224.3-.367.41-.294.226-.443.56-.645.848-.208.296-.308.663-.467.993a7.631 7.631 0 0 1-.386.713c-.054.088-.163.142-.248.211.105.183.117.192-.022.359-.154.186-.205.406-.237.63-.05.352-.078.708-.117 1.063l-.4.307c.405.138.451.23.388.671-.025.18-.016.366-.025.548-.005.097-.005.196-.028.29-.057.246-.076.5-.156.743-.024.072.011.162.013.244.002.071.016.153-.013.212-.13.273-.12.564-.12.852 0 .378-.004.75-.146 1.112-.09.23-.176.466-.079.724.025.065.01.152-.009.224-.07.273-.016.55-.032.824-.021.373-.033.75.106 1.11.015.038.006.085.008.128.006.194.004.389.02.582.01.115.082.232.067.34-.086.602.012 1.193.087 1.785.017.138.007.292.067.409.098.191.098.392.128.591.045.307.086.616.133.923.008.052.04.1.059.15.018.047.033.096.047.145.026.09.024.203.08.263.107.114.147.25.152.385.015.423.268.771.35 1.172.043.22.136.432.162.653.02.167.055.315.137.46.042.074.064.16.09.242.054.164.1.331.156.495.198.578.466 1.133.589 1.737a.923.923 0 0 0 .157.354c.128.173.205.35.197.568-.003.06.025.13.058.183.22.353.308.757.453 1.14.038.101.088.197.13.297.052.128.11.254.151.386.045.144.065.296.111.44.09.278.187.554.288.827.136.365.283.725.417 1.091.059.162.135.333.13.496a.538.538 0 0 0 .092.319c.13.224.306.448.345.69.058.356.212.657.373.96.105.2.239.384.366.57.086.124.218.228.267.363.092.251.235.476.321.735.159.479.392.937.628 1.386.194.367.357.74.454 1.142.161.667.485 1.269.778 1.88.215.448.466.88.717 1.309.167.287.361.559.549.834.132.195.293.373.405.578.247.454.43.94.743 1.36.118.159.224.313.413.399a.451.451 0 0 1 .19.168c.078.13.184.206.327.247a.343.343 0 0 1 .16.099c.152.18.35.333.368.596.003.03.012.07.034.088.185.164.365.335.563.482.143.105.29.205.337.38.055.205.15.374.308.517.061.056.1.14.139.217.168.338.333.677.514 1.044.114-.007.214.015.282-.023.233-.13.49-.148.74-.213.343-.09.668-.248 1.001-.378.112-.044.218-.09.342-.017.046.028.13.024.182.004.433-.17.864-.343 1.292-.52.39-.163.775-.336 1.165-.496.36-.148.725-.282 1.086-.429.221-.09.43-.227.659-.274.24-.05.453-.14.661-.255.038-.02.08-.035.12-.05.415-.156.855-.24 1.256-.445.393-.202.81-.353 1.207-.549.32-.157.62-.35.974-.433a3.54 3.54 0 0 0 .576-.202c.238-.103.468-.225.702-.34.302-.146.596-.31.908-.432.268-.104.56-.15.771-.374.019-.02.063-.015.093-.027.328-.14.667-.26.983-.424.455-.235.93-.414 1.405-.599.097-.037.184-.1.272-.157.21-.136.418-.276.675-.295.523-.04.947-.31 1.31-.643.267-.247.55-.445.87-.608.328-.166.676-.292.975-.514.18-.134.361-.28.566-.37a1.28 1.28 0 0 0 .45-.308c.163-.18.343-.324.592-.368a.34.34 0 0 0 .17-.09.62.62 0 0 1 .435-.192c.105-.003.197-.051.217-.163.025-.14.123-.19.239-.237.09-.036.17-.094.255-.141.216-.121.431-.244.65-.362.217-.118.453-.209.654-.348.363-.252.702-.536 1.058-.796.146-.108.33-.17.464-.288.21-.184.345-.458.64-.533.314-.078.379-.444.665-.548.01-.004.022-.007.03-.014.023-.022.055-.042.065-.07.083-.241.304-.327.503-.426a.875.875 0 0 0 .344-.285c.231-.326.496-.64.854-.818.342-.172.597-.439.82-.709.302-.365.658-.677.95-1.047.207-.262.472-.479.593-.804.017-.045.073-.076.113-.11.065-.058.138-.106.197-.168.259-.275.503-.565.773-.828.264-.258.534-.506.703-.84.034-.066.087-.147.149-.168.22-.071.308-.26.43-.422a.99.99 0 0 1 .243-.256.647.647 0 0 0 .242-.296 1.45 1.45 0 0 1 .114-.194c.262-.382.538-.753.593-1.239.028-.244.097-.484.16-.723.038-.145.1-.284.153-.425.083-.221.165-.443.252-.663zm-36.497-10.98c.17-.088.219-.233.25-.392.072-.36.11-.726.207-1.077.121-.437.288-.86.437-1.29.048-.136.14-.218.297-.195.12.018.198-.039.281-.124a.5.5 0 0 1 .252-.123c.134-.026.274-.021.423-.03.1.126.072.273.05.425-.025.17-.041.342-.05.514-.018.35-.104.682-.227 1.008-.135.355-.265.711-.385 1.07-.074.224-.034.286.168.388.348.175.696.353 1.04.537.267.142.523.042.596-.254.147-.59.396-1.14.669-1.68.132-.26.274-.517.38-.788.07-.178.1-.376.12-.569.044-.411.29-.716.523-1.027.083-.112.277-.097.417.001.116.082.185.277.14.405a.154.154 0 0 1-.03.057c-.328.334-.294.795-.425 1.197-.05.154-.107.307-.146.464a7.162 7.162 0 0 1-.715 1.839c-.057.102-.096.216-.151.342.33.186.376.3.278.619-.016.052-.036.102-.053.154-.125.367-.209.425-.59.407-.032 0-.064.006-.126.011-.054.1-.129.207-.172.326-.188.519-.379 1.038-.545 1.564-.11.35-.18.711-.267 1.068-.013.053-.023.106-.042.157-.12.317-.37.392-.642.193a.576.576 0 0 1-.198-.661c.133-.35.286-.7.382-1.056.1-.368.245-.714.361-1.073.042-.133.096-.261.146-.394-.122-.155-.29-.176-.447-.155-.264.037-.493-.044-.721-.152-.058-.027-.117-.06-.18-.075-.185-.042-.32.025-.395.2-.03.068-.045.144-.062.218l-.234 1.044c-.028.126-.05.255-.089.378a1.14 1.14 0 0 1-.138.322c-.16.224-.418.235-.617.041-.054-.051-.1-.11-.164-.184-.087.055-.16.12-.246.152-.073.028-.159.02-.286.032.04-.309.052-.577.114-.833.11-.452.245-.898.38-1.343a6.68 6.68 0 0 1 .235-.635c.056-.13.043-.24-.02-.368-.161-.328-.111-.484.217-.654zm-5.072-.393c-.27.34-.538.68-.815 1.013-.145.175-.31.332-.463.5-.262.289-.522.58-.783.869-.043.048-.085.101-.137.136-.082.054-.188.016-.207-.08a1.231 1.231 0 0 1-.018-.322c.01-.14.037-.279.06-.418.024-.14.033-.278-.06-.424-.183.028-.233.158-.298.265-.152.25-.295.505-.447.754-.038.06-.098.107-.16.172-.158-.128-.144-.283-.098-.422.08-.24.1-.484.127-.732.038-.363.13-.72.192-1.08.03-.17.067-.344.063-.514-.008-.427.096-.836.162-1.252a1.42 1.42 0 0 1 .202-.54 1.71 1.71 0 0 0 .2-.51 73.09 73.09 0 0 0 .412-1.903c.041-.2.06-.406.073-.611a.385.385 0 0 0-.064-.212c-.191-.307-.241-.6.047-.882.036-.036.045-.096.072-.143.136-.242.42-.266.581-.039a.86.86 0 0 1 .124.297c.148.62.14 1.244.034 1.871-.05.3-.098.598-.233.874a.303.303 0 0 0-.036.124c-.007.508-.143 1.008-.083 1.52.021.183 0 .37.024.551.025.178.084.35.131.539.061-.026.1-.03.115-.051.263-.366.636-.619.945-.936.241-.246.455-.52.683-.78.141-.161.287-.32.438-.489.129.096.245.171.348.261a.98.98 0 0 1 .317.625c.042.31.119.624.104.932-.012.274.087.525.083.794-.002.127.088.255.128.363.17.025.215-.075.267-.152.2-.296.386-.602.59-.896.283-.41.583-.809.862-1.222.167-.25.3-.522.459-.778.185-.3.32-.63.566-.892.151-.16.316-.263.549-.167.128.052.231.006.307-.11.033-.052.078-.096.113-.139.145.051.123.16.13.252.018.302-.073.59-.197.849-.259.536-.561 1.05-.845 1.574-.277.512-.727.886-1.08 1.336-.409.52-.827 1.031-1.24 1.548-.153.193-.219.42-.245.662a2.479 2.479 0 0 1-.062.35c-.06.233-.19.378-.457.381-.083.002-.171.073-.245.128-.06.044-.096.12-.153.167-.117.097-.228.053-.263-.098-.009-.042-.01-.086-.012-.13-.017-.424-.134-.828-.252-1.233a1.203 1.203 0 0 1-.066-.412c.033-.472-.08-.923-.146-1.402a.775.775 0 0 0-.343.264zm2.553 9.96c-.152.191-.43.284-.627.144-.229-.163-.487-.233-.748-.3-.295-.076-.597-.119-.892-.192-.273-.07-.541-.16-.811-.241-.072-.022-.143-.053-.217-.07-.113-.023-.195.024-.224.135a3.588 3.588 0 0 0-.085.414c-.035.268-.061.538-.088.807-.024.247-.048.49-.158.723-.063.132-.08.293-.092.442-.033.405-.307.676-.845.484-.07-.025-.138-.055-.214-.085a.748.748 0 0 0-.269.545c-.008.216-.137.338-.292.438-.064.042-.165.042-.246.033-.083-.008-.131-.075-.113-.165.013-.064.037-.125.054-.188.09-.323.15-.657.274-.966.154-.385.23-.788.338-1.183.164-.594.317-1.192.443-1.795.084-.402.159-.805.303-1.192.026-.069.047-.156.028-.222-.068-.232.044-.348.255-.412-.076-.574.247-.996.516-1.437.062-.1.14-.192.216-.285.105-.127.24-.191.404-.14.279.086.558.064.84.026a.464.464 0 0 1 .189.013c.346.103.7.164 1.06.121.21-.025.414-.01.61.051.342.107.68.224 1.014.352.095.037.207.112.247.198.126.275.333.482.536.689.532.54.398 1.13.105 1.565-.268.401-.63.713-.956 1.06a9.74 9.74 0 0 0-.555.633zm4.849 5.088c-.165.108-.332.113-.485-.01-.205-.163-.317-.356-.268-.647.052-.306.04-.622.044-.934.005-.303-.007-.606-.007-.909.001-.29.008-.581.013-.896-.303-.137-.577-.266-.856-.385-.118-.05-.245-.083-.37-.118-.156-.043-.31-.075-.439-.194-.12-.11-.186-.09-.29.057-.36.514-.716 1.031-1.07 1.543.042.133.208.18.157.35-.052.169-.092.328-.251.436-.224.152-.444.31-.652.483-.096.08-.171.191-.234.3-.171.294-.424.355-.741.169-.249-.146-.296-.433-.106-.7.113-.158.24-.305.361-.457.412-.517.834-1.025 1.231-1.552.318-.424.613-.865.816-1.36.032-.08.074-.157.121-.23.14-.216.292-.425.427-.645.228-.368.451-.74.67-1.113.13-.224.256-.451.372-.682.11-.223.314-.347.527-.231.222.12.435.08.657.08.123 0 .185-.072.24-.202.094.108.178.19.246.284.382.533.527 1.107.296 1.745-.147.408-.287.817-.275 1.26.003.115-.076.256-.032.336.056.1.202.152.308.224l.032.025c.048.16.062.321.142.436.072.102.218.152.333.226-.019.086-.042.158-.048.232-.016.182-.11.295-.278.363-.164.066-.321.147-.344.352-.005.043-.017.086-.016.128.002.204.007.409.012.613l.024 1.065c.006.232-.066.426-.267.558zm5.16-14.958c-.209.475-.43.944-.713 1.38-.029.046-.071.088-.084.138-.104.394-.32.755-.35 1.173-.02.27-.058.538-.08.808-.008.117-.023.244.012.352a.564.564 0 0 1-.088.524c-.1.135-.115.271-.127.422-.027.326-.188.425-.499.375-.253-.04-.397-.184-.526-.406l.1-.435c-.134-.022-.188.058-.247.133a17.21 17.21 0 0 1-.385.482.653.653 0 0 1-.17.15c-.037.021-.104.016-.145-.003-.026-.013-.043-.078-.036-.114.018-.083.05-.165.083-.245.16-.378.323-.755.484-1.132a.368.368 0 0 1 .045-.086c.36-.444.54-.984.806-1.478.268-.495.507-1.003.727-1.519.119-.277.197-.57.296-.856.091-.264.183-.528.279-.791.08-.222.211-.315.405-.297.157.015.353.218.366.407.024.35-.012.694-.154 1.018zm10.138 9.66c.108-.188.237-.365.327-.56.163-.353.308-.715.452-1.076.273-.683.49-1.388.825-2.047.06-.115.099-.24.154-.358.072-.156.142-.314.23-.462.145-.241.23-.497.251-.847-.04-.032-.088-.076-.141-.108-.1-.059-.13-.143-.094-.248a.542.542 0 0 0-.018-.379c-.055-.15-.01-.3.066-.437.093-.169.216-.24.404-.194.304.075.612.15.844.39.252.264.573.434.9.578.233.103.492.148.743.208.179.043.36.084.543.099.214.017.445.054.643-.005.286-.087.482.024.687.174.06.044.122.122.183.121.223-.002.304.154.43.295.237.268.306.589.378.915.05.223.09.447.146.667.035.135.082.27.148.392.072.133.159.249.174.411.013.138.114.165.242.095.018-.011.038-.023.052-.038.146-.156.303-.142.462-.024.28-.16.538-.282.763-.446.227-.166.434-.355.7-.464.042-.018.071-.079.099-.124a.5.5 0 0 1 .272-.21c.147-.056.268-.177.404-.266.23-.15.462-.295.727-.465.03.12.076.205.064.279-.026.154.048.244.15.335.113.102.244.215.187.384-.07.211-.04.49-.338.574-.093.026-.183.063-.275.093-.062.02-.137.023-.184.06-.468.36-1.055.506-1.526.86-.162.123-.356.203-.538.298-.152.079-.264.185-.296.363-.036.198-.148.348-.29.494-.273.282-.459.628-.618.985-.19.425-.385.849-.559 1.28-.157.39-.314.775-.291 1.219.026.482-.348.699-.793.496l-.175-.082c-.064.106-.12.204-.182.3-.154.242-.268.288-.601.23.015-.08.015-.166.048-.238.157-.343.302-.695.494-1.019.24-.408.287-.883.5-1.297.122-.24.258-.472.39-.707.02-.036.056-.066.071-.104.192-.481.38-.963.557-1.408-.074-.244-.137-.46-.205-.672-.095-.298-.199-.594-.292-.893-.06-.195-.105-.394-.167-.589a27.49 27.49 0 0 0-.372-1.106c-.02-.052-.125-.114-.178-.104-.265.051-.49-.085-.73-.133-.288-.057-.57-.117-.865-.147-.342-.034-.677-.151-1.013-.24a8.491 8.491 0 0 1-.53-.162c-.148-.049-.253-.006-.325.13-.108.2-.225.396-.326.6-.099.201-.072.281.132.394.39.218.794.398 1.242.469.294.045.496.214.56.514a.476.476 0 0 1-.186.518.44.44 0 0 1-.52.026c-.166-.1-.329-.204-.494-.305-.028-.017-.055-.037-.086-.046-.27-.084-.536-.18-.81-.245-.352-.084-.47-.02-.607.318-.139.34-.258.689-.388 1.033-.072.192-.154.382-.222.576-.072.206-.051.255.137.372.274.171.59.219.898.279.34.066.686.111 1.03.165a.593.593 0 0 1 .387.923c-.127.176-.405.256-.58.111-.278-.233-.612-.258-.938-.332-.222-.05-.44-.121-.663-.167-.18-.036-.365-.05-.548-.07-.123-.012-.203.039-.247.162a.944.944 0 0 1-.15.284c-.208.245-.535.204-.709-.065-.126-.195-.14-.383-.026-.58zm-.92 5.056c-.033.175.042.242.226.299.208.063.41.144.62.192.168.039.344.034.515.058.293.04.544.226.845.243.48.301.329.743-.003.979-.062.043-.191.033-.273.003-.725-.265-1.484-.389-2.279-.578-.072.21-.136.38-.19.552-.065.206-.126.415-.183.623-.074.265-.019.403.244.515.188.08.391.158.592.17.36.023.661.203.986.313.234.08.41.27.333.585-.078.314-.248.504-.54.52a.488.488 0 0 1-.277-.062.832.832 0 0 0-.56-.127 5.05 5.05 0 0 1-.844-.002c-.242-.017-.495.041-.736.096a.647.647 0 0 1-.551-.098c-.182-.122-.247-.276-.199-.47.041-.167.1-.335.185-.483.2-.35.3-.737.437-1.11.033-.091.063-.185.106-.27.262-.518.398-1.07.517-1.636.084-.4.187-.793.242-1.201.045-.33.157-.65.166-.988.006-.228.144-.383.311-.509.168-.126.458-.102.633.073.279.277.618.39.994.428.497.051.994.101 1.49.153a.714.714 0 0 1 .16.03c.39.132.78.265 1.17.403.093.033.187.087.174.205-.012.116-.087.211-.202.228a1.26 1.26 0 0 1-.42.002c-.218-.044-.39-.021-.562.146-.194.188-.356.182-.585.015-.296-.215-.63-.275-.984-.281a2.3 2.3 0 0 1-.418-.047c-.158-.033-.308-.096-.478-.034-.05.017-.132-.042-.194-.075-.1-.052-.185-.026-.21.07-.096.355-.19.71-.258 1.07zm-4.134-7.208c.157-.343.317-.683.503-1.011.052-.091.05-.21.09-.309.11-.27.23-.536.345-.804.19-.446.42-.877.548-1.351.059-.217.178-.418.278-.623.247-.503.325-1.052.439-1.592.035-.167.09-.333.161-.488.115-.25.273-.284.491-.122.06.044.11.098.166.15.038-.023.067-.036.09-.057.296-.267.633-.19.764.186.07.202.144.408.018.627-.039.067-.03.17-.022.254.057.61-.028 1.21-.094 1.813-.055.494-.113.989-.17 1.483-.019.162.023.297.17.402.168-.046.184-.199.232-.324.15-.395.282-.797.45-1.184.335-.775.66-1.554 1.058-2.3.122-.228.209-.475.32-.708.043-.087.103-.167.168-.239.122-.134.241-.16.378-.102.176.076.264.196.25.374-.016.178-.048.355-.075.56l.253.073.033.333c-.179.092-.223.27-.305.433a33.397 33.397 0 0 1-.934 1.712c-.197.335-.44.643-.66.964a7.912 7.912 0 0 0-.879 1.62c-.084.22-.099.464-.154.695-.037.156-.07.317-.138.46-.081.17-.265.224-.446.168-.275-.086-.442-.32-.374-.6.11-.453.015-.895-.012-1.344-.035-.59-.213-1.178-.07-1.776a.278.278 0 0 0 .01-.096c-.06-.5.084-.985.102-1.478.011-.3-.024-.6-.04-.937-.09.253-.166.475-.249.695-.125.335-.247.67-.383 1-.209.512-.43 1.018-.643 1.528-.1.238-.198.478-.29.72a1.355 1.355 0 0 0-.088.606.68.68 0 0 1-.03.288c-.116.313-.232.628-.376.93-.154.323-.534.365-.78.107-.286-.3-.281-.35-.105-.736zm-.779 2.66c.34-.116.648-.051.97.096.227.103.392.27.561.425.352.32.516.767.676 1.202.076.203.08.425-.072.619-.108.136-.232.232-.415.198-.181-.034-.344-.067-.423-.29a3.93 3.93 0 0 0-.403-.813 1.094 1.094 0 0 0-.552-.437c-.166-.058-.319-.035-.494.051-.4.196-.686.527-1.006.808-.25.221-.464.508-.658.789-.157.227-.243.502-.353.76-.07.17-.102.36-.196.515-.125.204-.124.409-.09.625.032.215.073.428.102.642.05.359.242.647.465.914.205.247.644.344.953.24.272-.09.521-.226.713-.437.08-.09.158-.228.15-.339-.012-.2.06-.33.2-.45.07-.06.128-.132.24-.248-.236-.02-.408-.061-.575-.046-.4.038-.744-.098-1.07-.3a.468.468 0 0 1-.064-.75c.12-.105.26-.093.402-.055.199.055.397.12.6.153.427.068.859.113 1.288.178.203.03.403.085.605.128.242.05.412.18.478.432-.337.394-.62.825-.802 1.317-.034.09-.05.188-.075.282-.06.23-.109.464-.185.689a2.234 2.234 0 0 0-.11.698c-.004.302-.155.558-.339.791-.073.092-.176.12-.293.101-.38-.058-.585-.409-.443-.763.153-.382.153-.382.136-.596-.135-.057-.256.013-.357.081-.344.232-.741.238-1.127.262-.26.015-.474-.156-.675-.297-.263-.185-.503-.402-.745-.614-.216-.188-.4-.414-.456-.697-.07-.357-.142-.716-.147-1.084-.005-.33.07-.635.204-.94.093-.21.21-.415.239-.66.019-.162.124-.32.215-.464.098-.156.213-.292.232-.49.01-.099.082-.2.146-.283.202-.267.4-.541.628-.786.212-.23.45-.438.695-.631.168-.133.381-.206.552-.335a.917.917 0 0 1 .514-.173c.054-.005.111-.002.161-.019zm-3.046-10.155a.449.449 0 0 1 .4.072c.267.183.566.268.88.322.117.02.23.062.346.093.168.043.33.082.503-.012.153-.084.305-.005.421.092.218.181.469.268.74.312.309.05.62.088.928.136.216.033.411.002.549-.164.159.102.272.182.392.25a.56.56 0 0 1 .215.704c-.107.23-.372.312-.642.217-.317-.11-.637-.211-.957-.312a.657.657 0 0 0-.224-.041 1.913 1.913 0 0 1-.64-.095c-.232-.068-.32-.018-.385.217-.193.695-.532 1.321-.893 1.938-.267.458-.547.908-.809 1.37-.139.243-.25.503-.376.754-.054.108-.04.207.017.31.113.203.079.385-.063.57-.112.145-.197.31-.284.472-.078.145-.187.256-.354.242-.204-.016-.432-.038-.532-.253-.085-.183-.141-.372-.005-.582.17-.261.283-.552.395-.847.172-.452.435-.869.663-1.299.16-.303.321-.607.494-.905.146-.252.307-.496.465-.742.183-.286.247-.617.355-.932.016-.045-.003-.106-.015-.157-.03-.135-.066-.268-.113-.455-.05-.014-.14-.045-.23-.065-.167-.039-.34-.06-.503-.11-.188-.057-.368-.105-.572-.083-.301.032-.503-.158-.686-.355.051-.418.173-.56.52-.662zm-2.072 12.617c-.173.589-.374 1.17-.568 1.753-.132.398-.28.792-.406 1.193-.037.12-.024.256-.034.384-.019.281-.175.459-.452.512-.196.038-.489-.103-.572-.295-.077-.177-.047-.37.02-.538.222-.551.464-1.094.691-1.643.07-.17.122-.346.176-.522.091-.297.183-.595.263-.896.058-.219.086-.445.149-.662.087-.3.198-.594.294-.892.126-.39.258-.779.37-1.173.079-.28.253-.44.53-.511.123-.032.202.003.276.106.183.251.173.523.11.817-.038.09-.072.193-.124.287-.36.653-.515 1.374-.723 2.08zm-7.095 18.703c.024-.192.134-.223.326-.274a.478.478 0 0 1-.326.274zm34.464-18.539c-.15.322-.349.62-.526.93-.005.009-.013.018-.016.028-.213.704-.655 1.29-.989 1.932-.117.226-.273.435-.335.692-.02.088-.103.163-.163.24-.22.282-.435.568-.663.843-.117.14-.255.263-.39.388-.205.191-.423.368-.62.566-.313.312-.622.625-1.026.824-.038.018-.095.032-.108.063-.086.203-.281.321-.394.487-.241.354-.595.562-.9.833-.04.036-.086.067-.126.102-.219.194-.428.399-.656.58-.313.25-.636.487-.962.72-.352.251-.712.493-1.07.737-.186.127-.356.285-.585.343-.04.01-.075.043-.106.071-.465.419-1.043.653-1.578.956-.084.047-.17.09-.248.147-.254.179-.495.372-.783.505-.245.113-.467.276-.697.418-.313.193-.595.436-.957.544-.048.014-.082.07-.128.098-.184.113-.366.23-.557.33-.47.247-.94.493-1.418.723-.272.131-.558.233-.84.345a9.11 9.11 0 0 1-.486.18c-.078.026-.162.034-.244.05-.234.154-.456.334-.707.451-.26.121-.547.188-.827.26-.053.014-.139-.042-.187-.089-.115-.11-.217-.233-.32-.346-.376.225-.417.36-.217.684-.14.163-.32.28-.519.363-.26.108-.528.195-.792.294-.234.087-.478.155-.697.27-.667.352-1.401.518-2.103.773-.478.174-.968.328-1.427.545-.414.196-.85.297-1.282.426-.186.055-.367.131-.548.204-.373.148-.741.312-1.114.451-.521.194-.996.478-1.513.671-.181.068-.376.1-.56.159-.13.04-.255.098-.401.156-.052-.111-.086-.214-.143-.3-.08-.121-.185-.215-.35-.19a.3.3 0 0 0-.268.248c-.031.156.016.277.172.343.018.007.03.03.055.058-.02.12-.105.195-.215.249-.254.121-.506.247-.763.362a2.631 2.631 0 0 1-.367.123c-.103.028-.21.044-.322.066-.218-.229-.33-.521-.445-.823-.106-.278-.301-.522-.458-.78l-.387-.63c.261-.348 1.501-.924 1.957-.914-.085.366-.037.539.165.6.156.047.33-.073.446-.306.083-.17.052-.21-.347-.434.084-.049.15-.106.226-.128.943-.266 1.836-.663 2.746-1.016.283-.11.554-.25.831-.373.039-.017.083-.02.154-.036.016.1.035.189.046.28.032.257.077.314.323.38.082.022.169.028.248.04.3-.413.192-.706-.331-.845.087-.057.153-.106.225-.143.492-.254.984-.509 1.48-.755a89.75 89.75 0 0 1 1.465-.71c.469-.225.94-.444 1.412-.664.974-.454 1.948-.906 2.921-1.361.147-.068.289-.148.434-.22.378-.188.764-.363 1.132-.568.245-.136.464-.315.696-.473.143-.098.283-.2.433-.286.328-.185.66-.362 1.007-.55.014.06.03.09.026.116-.021.15-.063.309.057.433.158.162.313.342.553.372.088.012.189-.028.275-.064.109-.045.136-.144.092-.245-.083-.187-.179-.37-.268-.554-.092-.192-.273-.185-.486-.18.042-.064.055-.105.084-.124.622-.396 1.242-.797 1.87-1.182.436-.267.889-.504 1.325-.768.39-.236.767-.491 1.15-.737.054-.036.106-.076.163-.107.267-.144.525-.294.758-.498.242-.212.535-.365.792-.563.369-.284.72-.591 1.088-.876a97.506 97.506 0 0 1 1.658-1.254c.428-.316.833-.659 1.226-1.018.51-.467 1.047-.905 1.569-1.36.104-.091.188-.204.282-.306.051-.056.095-.123.155-.166.419-.296.77-.66 1.105-1.042a.615.615 0 0 1 .097-.087 3.87 3.87 0 0 0 .882-.86c.042-.059.11-.1.157-.143.038.006.061.004.08.013.13.062.208.211.4.166.258-.06.5-.141.715-.295a.19.19 0 0 0 .054-.08c.048-.11.1-.233.008-.336a.305.305 0 0 0-.329-.086c-.071.021-.144.038-.206.054-.093-.068-.131-.14-.09-.235.052-.118.102-.24.165-.353.069-.123.142-.245.23-.354.419-.516.583-1.13.696-1.764.033-.181.072-.354.215-.537l.177.51c.173.491.303.994.351 1.514.038.42.075.838.019 1.263-.073.545-.26 1.051-.488 1.542z" fill="#FF92D1"/><path d="M30.011 42.194l.006-.002a.017.017 0 0 0 .004-.002l-.01.004" fill="#FF92D1"/></g><circle fill="#FF92D1" cx="89" cy="16" r="2"/><circle fill="#FF92D1" cx="96.5" cy="7.5" r="1.5"/><circle fill="#FF92D1" cx="36.5" cy="67.5" r="1.5"/><circle fill="#FF92D1" cx="30.5" cy="57.5" r="2.5"/><circle fill="#FF92D1" cx="29.5" cy="5.5" r="1.5"/><circle fill="#FF92D1" cx="3" cy="8" r="1"/><circle fill="#FF92D1" cx="12.5" cy="25.5" r="1.5"/><circle fill="#FF92D1" cx="4" cy="34" r="2"/><circle fill="#FF92D1" cx="12.5" cy="25.5" r="1.5"/><circle fill="#FF92D1" cx="12.5" cy="25.5" r="1.5"/><circle fill="#FF92D1" cx="12.5" cy="59.5" r="1.5"/><circle fill="#FF92D1" cx="116" cy="26" r="3"/><circle fill="#FF92D1" cx="103" cy="16" r="1"/><circle fill="#FF92D1" cx="103.5" cy="67.5" r="1.5"/><circle fill="#FF92D1" cx="85" cy="78" r="2"/><circle fill="#FF92D1" cx="59.5" cy="68.5" r="1.5"/><circle fill="#FF92D1" cx="67.5" cy="85.5" r="1.5"/><circle fill="#FF92D1" cx="47" cy="84" r="1"/><circle fill="#FF92D1" cx="45.5" cy="5.5" r="1.5"/><circle fill="#FF92D1" cx="77.5" cy="7.5" r="1.5"/><circle fill="#FF92D1" cx="120" cy="50" r="2"/><circle fill="#FF92D1" cx="1" cy="18" r="1"/><circle fill="#FF92D1" cx="64.5" cy="3.5" r="1.5"/><circle fill="#FF92D1" cx="20" cy="49" r="1"/><circle fill="#FF92D1" cx="17" cy="11" r="3"/><circle fill="#FF92D1" cx="24.5" cy="74.5" r="1.5"/><circle fill="#FF92D1" cx="57" cy="76" r="1"/><circle fill="#FF92D1" cx="120" cy="40" r="1"/><circle fill="#FF92D1" cx="115.5" cy="65.5" r="1.5"/><circle fill="#FF92D1" cx="90" cy="65" r="1"/><circle fill="#FF92D1" cx="45.5" cy="60.5" r="1.5"/><circle fill="#FF92D1" cx="99" cy="78" r="2"/><circle fill="#FF92D1" cx="109.5" cy="57.5" r="1.5"/><circle fill="#FF92D1" cx="4.5" cy="47.5" r="1.5"/><circle fill="#FF92D1" cx="33.5" cy="83.5" r="1.5"/><circle fill="#FF92D1" cx="73" cy="73" r="2"/><circle fill="#FF92D1" cx="86.5" cy="2.5" r="2.5"/><circle fill="#FF92D1" cx="20" cy="3" r="1"/><circle fill="#FF92D1" cx="15" cy="70" r="2"/><circle fill="#FF92D1" cx="109.5" cy="15.5" r="1.5"/><circle fill="#FF92D1" cx="14" cy="39" r="1"/></g></svg>