<svg width="20" height="17" viewBox="0 0 20 17" xmlns="http://www.w3.org/2000/svg"><title>Fill 1</title><path d="M19.688 2.716a8.076 8.076 0 0 1-2.32.636 4.051 4.051 0 0 0 1.776-2.235 8.09 8.09 0 0 1-2.565.98 4.04 4.04 0 0 0-6.883 3.684 11.467 11.467 0 0 1-8.325-4.22 4.037 4.037 0 0 0 1.25 5.393 4.023 4.023 0 0 1-1.83-.505v.05a4.042 4.042 0 0 0 3.24 3.961 4.045 4.045 0 0 1-1.824.07 4.043 4.043 0 0 0 3.773 2.805 8.105 8.105 0 0 1-5.016 1.729A8.29 8.29 0 0 1 0 15.007a11.433 11.433 0 0 0 6.192 1.815c7.43 0 11.492-6.155 11.492-11.492 0-.176-.004-.35-.012-.523a8.21 8.21 0 0 0 2.016-2.091" fill="#FF92D1" fill-rule="evenodd"/></svg>