<?xml version="1.0" encoding="UTF-8" standalone="no"?>
<svg width="227px" height="34px" viewBox="0 0 227 34" version="1.1" xmlns="http://www.w3.org/2000/svg" xmlns:xlink="http://www.w3.org/1999/xlink">
    <!-- Generator: Sketch 39.1 (31720) - http://www.bohemiancoding.com/sketch -->
    <title>divider fill</title>
    <desc>Created with Sketch.</desc>
    <defs></defs>
    <g id="Welcome" stroke="none" stroke-width="1" fill="none" fill-rule="evenodd">
        <g id="Desktop-HD-Copy" transform="translate(-991.000000, -588.000000)" fill="#CFFDFF">
            <path d="M1192.35098,594.928881 C1184.41561,590.665789 1177.36577,588.379395 1172.21242,588.504978 C1165.09275,588.67848 1161.16215,593.746519 1163.25061,600.736931 L1166.56842,611.842112 C1166.72572,612.368612 1166.77326,612.736493 1166.75668,612.931465 C1166.76124,612.877843 1166.82102,612.716275 1166.95138,612.548339 C1167.06565,612.401128 1167.1636,612.332028 1167.16113,612.332972 C1166.94146,612.416966 1166.55287,612.484355 1166.00822,612.497674 C1162.71754,612.578147 1157.03252,610.735142 1150.35072,607.145505 L1127.61054,594.928881 C1119.67516,590.665789 1112.62532,588.379395 1107.47198,588.504978 C1100.3523,588.67848 1096.4217,593.746519 1098.51017,600.736931 L1101.82797,611.842112 C1101.98527,612.368612 1102.03282,612.736493 1102.01623,612.931465 C1102.0208,612.877843 1102.08058,612.716275 1102.21094,612.548339 C1102.32521,612.401128 1102.42316,612.332028 1102.42069,612.332972 C1102.20102,612.416966 1101.81243,612.484355 1101.26778,612.497674 C1097.9771,612.578147 1092.29208,610.735142 1085.61028,607.145505 L1062.8701,594.928881 C1054.93472,590.665789 1047.88488,588.379395 1042.73153,588.504978 C1035.61186,588.67848 1031.68126,593.746519 1033.76973,600.736931 L1037.08753,611.842112 C1037.24483,612.368612 1037.29238,612.736493 1037.27579,612.931465 C1037.28035,612.877843 1037.34014,612.716275 1037.47049,612.548339 C1037.58476,612.401128 1037.68272,612.332028 1037.68025,612.332972 C1037.46058,612.416966 1037.07199,612.484355 1036.52734,612.497674 C1033.23665,612.578147 1027.55163,610.735142 1020.86984,607.145505 L998.129652,594.928881 C995.940306,593.752706 993.212012,594.574045 992.035838,596.763391 C990.859663,598.952737 991.681002,601.681031 993.870348,602.857205 L1016.61053,615.07383 C1024.54333,619.335533 1031.59326,621.621027 1036.74736,621.494984 C1043.86627,621.320893 1047.79889,616.254582 1045.7109,609.265779 L1042.3931,598.160599 C1042.23548,597.633031 1042.18775,597.264156 1042.20435,597.06833 C1042.19986,597.121321 1042.14028,597.282532 1042.01006,597.450443 C1041.89561,597.598002 1041.79721,597.66746 1041.79913,597.666728 C1042.01833,597.582884 1042.40649,597.515571 1042.95079,597.502307 C1046.24063,597.422136 1051.92621,599.266075 1058.61079,602.857205 L1081.35098,615.07383 C1089.28377,619.335533 1096.33371,621.621027 1101.48781,621.494984 C1108.60671,621.320893 1112.53933,616.254582 1110.45134,609.265779 L1107.13354,598.160599 C1106.97592,597.633031 1106.92819,597.264156 1106.94479,597.06833 C1106.9403,597.121321 1106.88072,597.282532 1106.7505,597.450443 C1106.63606,597.598002 1106.53766,597.66746 1106.53957,597.666728 C1106.75877,597.582884 1107.14694,597.515571 1107.69123,597.502307 C1110.98108,597.422136 1116.66666,599.266075 1123.35123,602.857205 L1146.09142,615.07383 C1154.02421,619.335533 1161.07415,621.621027 1166.22825,621.494984 C1173.34715,621.320893 1177.27977,616.254582 1175.19179,609.265779 L1171.87398,598.160599 C1171.71637,597.633031 1171.66864,597.264156 1171.68523,597.06833 C1171.68074,597.121321 1171.62117,597.282532 1171.49094,597.450443 C1171.3765,597.598002 1171.2781,597.66746 1171.28001,597.666728 C1171.49921,597.582884 1171.88738,597.515571 1172.43168,597.502307 C1175.72152,597.422136 1181.4071,599.266075 1188.09168,602.857205 L1210.83186,615.07383 C1213.02121,616.250004 1215.7495,615.428666 1216.92568,613.239319 C1218.10185,611.049973 1217.28051,608.321679 1215.09117,607.145505 L1192.35098,594.928881 Z" id="divider-fill"></path>
        </g>
    </g>
</svg>