<?xml version="1.0" encoding="UTF-8" standalone="no"?>
<svg width="16px" height="16px" viewBox="0 0 16 16" version="1.1" xmlns="http://www.w3.org/2000/svg" xmlns:xlink="http://www.w3.org/1999/xlink">
    <!-- Generator: Sketch 39.1 (31720) - http://www.bohemiancoding.com/sketch -->
    <title>Fill-14</title>
    <desc>Created with Sketch.</desc>
    <defs></defs>
    <g id="Welcome" stroke="none" stroke-width="1" fill="none" fill-rule="evenodd">
        <g id="Desktop-HD-Copy-5" transform="translate(-909.000000, -988.000000)" fill="#FF92D1">
            <path d="M924.116953,988 L909.883047,988 C909.395243,988 909,988.395243 909,988.883047 L909,1003.11695 C909,1003.60464 909.395243,1004 909.883047,1004 L917.546074,1004 L917.546074,997.803982 L915.460992,997.803982 L915.460992,995.389241 L917.546074,995.389241 L917.546074,993.608459 C917.546074,991.541841 918.808298,990.41654 920.651847,990.41654 C921.534894,990.41654 922.293907,990.482304 922.515058,990.511679 L922.515058,992.671398 L921.236468,992.671997 C920.233823,992.671997 920.039709,993.148411 920.039709,993.847535 L920.039709,995.389241 L922.43089,995.389241 L922.119516,997.803982 L920.039709,997.803982 L920.039709,1004 L924.116953,1004 C924.604637,1004 925,1003.60464 925,1003.11695 L925,988.883047 C925,988.395243 924.604637,988 924.116953,988" id="Fill-14"></path>
        </g>
    </g>
</svg>