<?xml version="1.0" encoding="UTF-8" standalone="no"?>
<svg width="20px" height="17px" viewBox="0 0 20 17" version="1.1" xmlns="http://www.w3.org/2000/svg" xmlns:xlink="http://www.w3.org/1999/xlink">
    <!-- Generator: Sketch 39.1 (31720) - http://www.bohemiancoding.com/sketch -->
    <title>Fill 1</title>
    <desc>Created with Sketch.</desc>
    <defs></defs>
    <g id="Welcome" stroke="none" stroke-width="1" fill="none" fill-rule="evenodd">
        <g id="Desktop-HD-Copy-5" transform="translate(-882.000000, -987.000000)" fill="#FF92D1">
            <path d="M901.687998,989.716049 C900.963606,990.037305 900.185131,990.254428 899.368056,990.352079 C900.202054,989.852156 900.842478,989.060574 901.144074,988.117403 C900.363654,988.580239 899.499194,988.916402 898.579139,989.09759 C897.842289,988.312562 896.792536,987.822 895.630801,987.822 C893.400013,987.822 891.591445,989.630496 891.591445,991.86114 C891.591445,992.177715 891.627236,992.486008 891.696082,992.781627 C888.339061,992.613185 885.362781,991.005105 883.370577,988.561371 C883.022892,989.157938 882.8237,989.851796 882.8237,990.592031 C882.8237,991.993358 883.536858,993.2297 884.620674,993.95402 C883.958502,993.933064 883.335722,993.751372 882.791077,993.44884 C882.790789,993.465691 882.790789,993.482614 882.790789,993.49961 C882.790789,995.456671 884.183114,997.089236 886.03093,997.460254 C885.691959,997.552576 885.335128,997.601906 884.966702,997.601906 C884.706443,997.601906 884.453384,997.576629 884.206807,997.52946 C884.720773,999.134227 886.212478,1000.30201 887.979998,1000.33463 C886.597611,1001.41795 884.855944,1002.0637 882.963552,1002.0637 C882.637543,1002.0637 882.315999,1002.04461 882,1002.00731 C883.78754,1003.15335 885.910738,1003.822 888.191792,1003.822 C895.621367,1003.822 899.684127,997.667151 899.684127,992.329521 C899.684127,992.154382 899.680238,991.980179 899.672461,991.806985 C900.461594,991.237496 901.14645,990.526066 901.687998,989.716049" id="Fill-1"></path>
        </g>
    </g>
</svg>