<?xml version="1.0" encoding="UTF-8" standalone="no"?>
<svg width="39px" height="39px" viewBox="0 0 39 39" version="1.1" xmlns="http://www.w3.org/2000/svg" xmlns:xlink="http://www.w3.org/1999/xlink">
    <!-- Generator: Sketch 39.1 (31720) - http://www.bohemiancoding.com/sketch -->
    <title>Group 6 Copy</title>
    <desc>Created with Sketch.</desc>
    <defs></defs>
    <g id="Welcome" stroke="none" stroke-width="1" fill="none" fill-rule="evenodd">
        <g id="Desktop-HD-Copy-5" transform="translate(-861.000000, -849.000000)">
            <g id="Group-6-Copy" transform="translate(861.000000, 849.000000)">
                <circle id="Oval-2" fill="#FF92D1" cx="19.5" cy="19.5" r="19.5"></circle>
                <g id="Group-5" transform="translate(12.000000, 9.000000)" fill="#FFFFFF">
                    <path d="M9,10.9089373 L10.8850588,13.0034471 C11.4392473,13.6192121 12.3876821,13.6691297 13.0034471,13.1149412 C13.6192121,12.5607527 13.6691297,11.6123179 13.1149412,10.9965529 L8.61494122,5.9965529 C8.01907774,5.33448237 6.98092226,5.33448237 6.38505878,5.9965529 L1.88505878,10.9965529 C1.33087025,11.6123179 1.38078787,12.5607527 1.9965529,13.1149412 C2.61231793,13.6691297 3.56075269,13.6192121 4.11494122,13.0034471 L6,10.9089373 L6,21 C6,21.8284271 6.67157288,22.5 7.5,22.5 C8.32842712,22.5 9,21.8284271 9,21 L9,10.9089373 Z" id="Combined-Shape"></path>
                    <path d="M1.5,0 C0.671572875,0 0,0.671572875 0,1.5 C0,2.32842712 0.671572875,3 1.5,3 L13.5,3 C14.3284271,3 15,2.32842712 15,1.5 C15,0.671572875 14.3284271,0 13.5,0 L1.5,0 Z" id="Line"></path>
                </g>
            </g>
        </g>
    </g>
</svg>